<svg xmlns="http://www.w3.org/2000/svg" viewBox="0 0 103.48 19.347">
  <defs>
    <style>
      .cls-1 {
        opacity: 0.6;
      }

      .cls-2 {
        fill: #b2b2b2;
      }
    </style>
  </defs>
  <g id="deloitte_grey" class="cls-1" transform="translate(0 0)">
    <g id="g3359" transform="translate(0 0)">
      <g id="g3371">
        <path id="path3356" class="cls-2" d="M16602.328,5274.844a2.742,2.742,0,1,1,2.742,2.742,2.745,2.745,0,0,1-2.742-2.742" transform="translate(-16504.332 -5258.239)"/>
        <path id="path3360" class="cls-2" d="M15773.979,5163.383a6.14,6.14,0,0,0-1.006-3.865,3.685,3.685,0,0,0-3.061-1.258h-1.456v10.623h1.114a3.988,3.988,0,0,0,3.345-1.355,6.674,6.674,0,0,0,1.063-4.145m5.194-.181q0,4.748-2.553,7.315a9.668,9.668,0,0,1-7.176,2.568h-5.991v-18.964h6.409q4.459,0,6.885,2.334t2.426,6.746" transform="translate(-15763.453 -5154.042)"/>
        <path id="path3362" class="cls-2" d="M16040.076,5172.484h4.768V5153.44h-4.768Z" transform="translate(-16007.763 -5153.439)"/>
        <path id="path3366" class="cls-2" d="M16101.612,5200.522a6.417,6.417,0,0,0,.476,2.776,1.647,1.647,0,0,0,1.6.956,1.6,1.6,0,0,0,1.567-.956,6.621,6.621,0,0,0,.457-2.776,6.318,6.318,0,0,0-.463-2.734,1.814,1.814,0,0,0-3.158-.007,6.166,6.166,0,0,0-.476,2.742m8.948,0a7.591,7.591,0,0,1-1.823,5.411,6.653,6.653,0,0,1-5.1,1.942,6.526,6.526,0,0,1-5-1.985,8.754,8.754,0,0,1-.037-10.743,6.722,6.722,0,0,1,5.115-1.917,7.15,7.15,0,0,1,3.6.888,5.978,5.978,0,0,1,2.407,2.541,8.357,8.357,0,0,1,.848,3.865" transform="translate(-16057.834 -5188.581)"/>
        <path id="path3370" class="cls-2" d="M16231.016,5209.516h4.768v-14.146h-4.768Z" transform="translate(-16176.396 -5190.472)"/>
        <path id="path3372" class="cls-2" d="M16231.014,5156.621h4.768v-3.187h-4.768Z" transform="translate(-16176.396 -5153.434)"/>
        <path id="path3376" class="cls-2" d="M16295.811,5172.288a6.93,6.93,0,0,0,2.3-.488v3.559a9.254,9.254,0,0,1-1.832.6,10.148,10.148,0,0,1-2.045.182,4.4,4.4,0,0,1-3.462-1.205,5.483,5.483,0,0,1-1.06-3.7v-5.832h-1.67v-3.657h1.67v-3.612l4.8-.836v4.448h3.042v3.657h-3.042v5.506c0,.916.432,1.374,1.29,1.374" transform="translate(-16226.766 -5156.852)"/>
        <path id="path3380" class="cls-2" d="M16390.266,5172.288a6.939,6.939,0,0,0,2.3-.488v3.559a9.2,9.2,0,0,1-1.836.6,10.086,10.086,0,0,1-2.041.182,4.407,4.407,0,0,1-3.463-1.205,5.494,5.494,0,0,1-1.061-3.7v-5.832h-1.67v-3.657h1.67v-3.667l4.8-.781v4.448h3.045v3.657h-3.045v5.506q0,1.374,1.293,1.374" transform="translate(-16310.186 -5156.852)"/>
        <path id="path3384" class="cls-2" d="M16483.057,5198.8a2.572,2.572,0,0,1,.664-1.7,1.957,1.957,0,0,1,1.41-.543,1.844,1.844,0,0,1,1.455.613,2.45,2.45,0,0,1,.564,1.634Zm6.723-3.9a6.6,6.6,0,0,0-4.82-1.668,6.533,6.533,0,0,0-5.051,1.917,7.846,7.846,0,0,0-1.766,5.5,7.177,7.177,0,0,0,1.91,5.35,7.311,7.311,0,0,0,5.359,1.879,15.626,15.626,0,0,0,2.85-.226,8.226,8.226,0,0,0,2.3-.8l-.732-3.187a9.427,9.427,0,0,1-3.852.746,3.267,3.267,0,0,1-2.176-.674,2.45,2.45,0,0,1-.846-1.86h8.52V5199.7a6.407,6.407,0,0,0-1.7-4.8" transform="translate(-16394.656 -5188.583)"/>
        <path id="path3388" class="cls-2" d="M15915.03,5198.8a2.587,2.587,0,0,1,.664-1.7,1.956,1.956,0,0,1,1.409-.543,1.843,1.843,0,0,1,1.456.613,2.457,2.457,0,0,1,.567,1.634Zm6.725-3.9a6.6,6.6,0,0,0-4.822-1.668,6.522,6.522,0,0,0-5.047,1.917,7.824,7.824,0,0,0-1.77,5.5,7.169,7.169,0,0,0,1.91,5.35,7.311,7.311,0,0,0,5.357,1.879,15.664,15.664,0,0,0,2.854-.226,8.241,8.241,0,0,0,2.3-.8l-.733-3.187a9.416,9.416,0,0,1-3.85.746,3.265,3.265,0,0,1-2.176-.674,2.442,2.442,0,0,1-.848-1.86h8.521V5199.7a6.422,6.422,0,0,0-1.7-4.8" transform="translate(-15892.983 -5188.583)"/>
      </g>
    </g>
  </g>
</svg>
