<svg id="Group_1871" data-name="Group 1871" xmlns="http://www.w3.org/2000/svg" viewBox="0 0 142.031 45.805">
  <defs>
    <style>
      .cls-1 {
        fill: #fff;
      }

      .cls-2 {
        fill: #151515;
      }
    </style>
  </defs>
  <g id="available-on-the-app-store" transform="translate(0)">
    <g id="Artboard-1" transform="translate(0)">
      <g id="App-Store">
        <path id="background" class="cls-1" d="M5.662,0H136.154a5.643,5.643,0,0,1,5.77,5.5V40.309a5.643,5.643,0,0,1-5.77,5.5H5.662a5.643,5.643,0,0,1-5.77-5.5V5.5A5.643,5.643,0,0,1,5.662,0Z" transform="translate(0.108)"/>
        <path id="Path_1621" data-name="Path 1621" class="cls-2" d="M80.014,169.142A.865.865,0,0,0,80,169.3v20.816a.46.46,0,0,0,.291.472L91.72,180.02,80.014,169.142Zm.422-.445a.94.94,0,0,1,.619.12l9.507,5.11,4.9,2.633L92.171,179.6,80.435,168.7Zm14.444,14.259-2.429,1.305-1.889,1.015-8.852,4.758,10.449-9.607,2.722,2.529Zm.571-.307.039-.021s4.182-2.248,4.738-2.546.5-.708.033-.944c-.366-.183-3.061-1.639-4.232-2.271l-3.419,3.144Z" transform="translate(-67.02 -154.814)"/>
        <g id="Group_1724" data-name="Group 1724" transform="translate(42.941 7.9)">
          <path id="Path_1622" data-name="Path 1622" class="cls-2" d="M473.638,119.9l-.894.823c-.207.111-.412.239-.617.331a4.422,4.422,0,0,1-1.813.344,4.073,4.073,0,0,1-2.487-.712,4.672,4.672,0,0,1-1.906-3.844,4.192,4.192,0,0,1,4.282-4.214,3.705,3.705,0,0,1,1.924.511,3.047,3.047,0,0,1,1.309,1.8l-4.393,1.732-1.439.109c.466,2.318,2.073,3.666,3.849,3.666a4.7,4.7,0,0,0,2.15-.574s.121-.062.035.023Zm-2.684-4.65c.353-.127.536-.237.536-.493a1.834,1.834,0,0,0-1.831-1.58,2.27,2.27,0,0,0-2.123,2.555c0,.31.037.639.056.969Zm-6.484,4.551c0,.707.129.817.741.872.319.037.637.053.952.089l-.689.4h-3.282c.43-.546.5-.6.5-.963v-.406l-.007-10.815H461.24l1.4-.657H465.3a1.257,1.257,0,0,0-.824,1.162l0,10.317Zm-5.093-6.28a2.93,2.93,0,0,1-.241,5.037,1.284,1.284,0,0,0-.521.89,1,1,0,0,0,.483.784l.672.507a3.163,3.163,0,0,1,1.561,2.548c0,1.711-1.693,3.436-4.891,3.436-2.695,0-4-1.255-4-2.6a2.6,2.6,0,0,1,1.433-2.218,8.155,8.155,0,0,1,3.551-.835,1.9,1.9,0,0,1-.559-1.239,1.615,1.615,0,0,1,.186-.709c-.2.019-.408.038-.595.038a2.911,2.911,0,0,1-3.087-2.857,3.238,3.238,0,0,1,1.191-2.437,5.155,5.155,0,0,1,3.329-1h3.832l-1.191.658h-1.155Zm-1.308,8.053a2.934,2.934,0,0,0-.432-.02,7.524,7.524,0,0,0-1.967.3,2.092,2.092,0,0,0-1.614,1.908c0,1.312,1.295,2.259,3.3,2.259,1.8,0,2.755-.852,2.755-2,0-.944-.618-1.442-2.04-2.444Zm.526-3.5a1.8,1.8,0,0,0,.465-1.325c0-1.3-.794-3.335-2.333-3.335a1.739,1.739,0,0,0-1.3.6,2.058,2.058,0,0,0-.407,1.339c0,1.214.723,3.228,2.314,3.228a1.914,1.914,0,0,0,1.256-.508ZM447.789,121.4a4.358,4.358,0,0,1-4.547-4.319,4.583,4.583,0,0,1,4.826-4.45,4.321,4.321,0,0,1,4.455,4.321A4.514,4.514,0,0,1,447.789,121.4Zm2.316-1.483a3.255,3.255,0,0,0,.562-2.036c0-1.617-.785-4.7-3.1-4.7a2.636,2.636,0,0,0-1.686.623,2.75,2.75,0,0,0-.86,2.243c0,1.815.913,4.807,3.179,4.807a2.406,2.406,0,0,0,1.908-.934ZM437.862,121.4a4.356,4.356,0,0,1-4.547-4.319,4.584,4.584,0,0,1,4.828-4.45,4.32,4.32,0,0,1,4.454,4.321A4.513,4.513,0,0,1,437.862,121.4Zm2.318-1.483a3.274,3.274,0,0,0,.561-2.036c0-1.617-.787-4.7-3.105-4.7a2.626,2.626,0,0,0-1.683.623,2.746,2.746,0,0,0-.862,2.243c0,1.815.917,4.807,3.181,4.807a2.409,2.409,0,0,0,1.908-.934Zm-8.093.941-2.509.561a18.767,18.767,0,0,1-2.9.294c-4.839,0-6.683-3.478-6.683-6.2,0-3.324,2.613-6.406,7.087-6.406a10.488,10.488,0,0,1,2.687.357,6.824,6.824,0,0,1,2.314,1.066l-1.457,1.352-.614.134.438-.682a5.054,5.054,0,0,0-3.754-1.61,4.781,4.781,0,0,0-4.856,5.054,6.122,6.122,0,0,0,6.208,6.251,5.332,5.332,0,0,0,2.227-.426v-2.761l-2.649.139,1.4-.736h3.718l-.455.427a.391.391,0,0,0-.173.273c-.018.156-.036.652-.036.826v2.088Zm46.966-.872v4.624h-.944V112.839h.944v1.34a3.785,3.785,0,0,1,3.045-1.553c2.342,0,3.92,1.728,3.92,4.462,0,2.717-1.578,4.48-3.92,4.48a3.775,3.775,0,0,1-3.045-1.587Zm6-2.822c0-2.083-1.109-3.672-3.076-3.672a3.771,3.771,0,0,0-2.9,1.759v3.806a3.8,3.8,0,0,0,2.9,1.795C483.94,120.847,485.049,119.245,485.049,117.159Zm2.26-7.586h.968V121.4h-.968Zm11.5,14.219a2.279,2.279,0,0,0,.765.142c.578,0,.98-.23,1.341-1.041l.689-1.518-3.721-8.591h1.054l3.192,7.445,3.161-7.445h1.069l-4.538,10.394a2.317,2.317,0,0,1-2.229,1.586,3.834,3.834,0,0,1-.944-.123l.162-.848Zm-2.665-2.408c-.063-.3-.111-.559-.146-.777a5.084,5.084,0,0,1-.046-.668,3.733,3.733,0,0,1-1.376,1.156,3.875,3.875,0,0,1-1.919.457,3.165,3.165,0,0,1-2.156-.67,2.3,2.3,0,0,1-.768-1.825,2.149,2.149,0,0,1,1.115-1.868,5.241,5.241,0,0,1,2.889-.717h2.215v-1.064a1.763,1.763,0,0,0-.644-1.445,2.809,2.809,0,0,0-1.819-.527,2.939,2.939,0,0,0-1.74.477,1.44,1.44,0,0,0-.659,1.2h-.972l-.02-.046a1.968,1.968,0,0,1,.917-1.7,4.071,4.071,0,0,1,2.527-.736,4.019,4.019,0,0,1,2.505.726,2.448,2.448,0,0,1,.948,2.075v4.226a6.526,6.526,0,0,0,.054.882,5.5,5.5,0,0,0,.189.848h-1.095Zm-3.373-.615a3.628,3.628,0,0,0,1.978-.525,2.674,2.674,0,0,0,1.2-1.345v-1.653h-2.224a3.708,3.708,0,0,0-2.106.555,1.6,1.6,0,0,0-.835,1.338,1.466,1.466,0,0,0,.532,1.181,2.181,2.181,0,0,0,1.458.45ZM420,101.61a3.13,3.13,0,0,1,5.5-1.663l-.845.442a1.983,1.983,0,0,0-1.54-.715,1.938,1.938,0,1,0,0,3.871,2.262,2.262,0,0,0,1.406-.482v-.827h-1.78v-.827h2.812v2a3.365,3.365,0,0,1-2.438.98A2.867,2.867,0,0,1,420,101.611Zm6.9,2.7V98.921h4.123v.832h-3.067v1.389h3v.832h-3v1.5h3.067v.832Zm6.926,0V99.753H432.03v-.832h4.628v.832h-1.794v4.555Zm6.535-5.387h1.01v5.387h-1.01Zm3.9,5.387V99.753h-1.795v-.832h4.628v.832H445.3v4.555Zm6.282-2.693a3.087,3.087,0,1,1,3.071,2.775A2.83,2.83,0,0,1,450.54,101.614Zm5.048-.041a1.978,1.978,0,1,0-1.977,1.918A1.862,1.862,0,0,0,455.588,101.573Zm6.4,2.734-3.09-3.852v3.852h-1.038V98.921h1.066l3.028,3.732V98.921h1.039v5.387Z" transform="translate(-419.998 -98.839)"/>
        </g>
      </g>
    </g>
  </g>
</svg>
