<svg id="instagram" xmlns="http://www.w3.org/2000/svg" viewBox="0 0 14.357 14.357">
  <defs>
    <style>
      .cls-1 {
        fill: #e4e4e4;
      }
    </style>
  </defs>
  <path id="Path_31" data-name="Path 31" class="cls-1" d="M10.08,0h-5.8A4.282,4.282,0,0,0,0,4.277v5.8a4.282,4.282,0,0,0,4.277,4.277h5.8a4.282,4.282,0,0,0,4.277-4.277v-5.8A4.282,4.282,0,0,0,10.08,0Zm2.833,10.08a2.833,2.833,0,0,1-2.833,2.833h-5.8A2.833,2.833,0,0,1,1.444,10.08v-5.8A2.833,2.833,0,0,1,4.277,1.444h5.8a2.833,2.833,0,0,1,2.833,2.833v5.8Z"/>
  <path id="Path_32" data-name="Path 32" class="cls-1" d="M136.713,133a3.713,3.713,0,1,0,3.713,3.713A3.718,3.718,0,0,0,136.713,133Zm0,5.982a2.269,2.269,0,1,1,2.269-2.269A2.269,2.269,0,0,1,136.713,138.982Z" transform="translate(-129.535 -129.535)"/>
  <circle id="Ellipse_2" data-name="Ellipse 2" class="cls-1" cx="0.89" cy="0.89" r="0.89" transform="translate(10.009 2.603)"/>
</svg>
