<svg xmlns="http://www.w3.org/2000/svg" viewBox="0 0 114.253 31.105">
  <defs>
    <style>
      .cls-1 {
        fill: #fff;
        stroke: #fff;
        stroke-width: 0.4px;
      }

      .cls-2 {
        fill: #dd8027;
      }

      .cls-3 {
        fill: #292e1e;
        opacity: 0.04;
      }
    </style>
  </defs>
  <g id="Group_3496" data-name="Group 3496" transform="translate(0 0.728)">
    <g id="logo" transform="translate(0 -0.728)">
      <g id="Layer_6" data-name="Layer 6" transform="translate(0 0)">
        <g id="Group_1512" data-name="Group 1512" transform="translate(28.133 7.745)">
          <g id="Group_3567" data-name="Group 3567">
            <path id="Path_1415" data-name="Path 1415" class="cls-1" d="M1013.709,282.14c3.7,0,5.448,2.208,5.448,5.293a10.56,10.56,0,0,1-.451,2.6h-10.416a4.321,4.321,0,0,0-.085.849,3.733,3.733,0,0,0,4.065,3.878,8.252,8.252,0,0,0,4.544-1.67l.79,2.18a9.735,9.735,0,0,1-5.448,1.868c-4.177,0-6.746-2.548-6.746-6.115C1005.41,286.273,1008.91,282.14,1013.709,282.14Zm2.653,5.832a4.768,4.768,0,0,0,.056-.763,2.6,2.6,0,0,0-2.766-2.887,5.383,5.383,0,0,0-4.913,3.652Z" transform="translate(-1005.41 -282.14)"/>
            <path id="Path_1416" data-name="Path 1416" class="cls-1" d="M1427.713,311.61a3.623,3.623,0,0,0,3.02-2.067l1.045-1.7L1428.5,293.72h2.851l1.919,9.681c.141.736.226,1.7.226,1.7h.029s.423-.934.819-1.642l5.363-9.737h3.077l-10.02,16.956c-1.327,2.236-3.133,3.312-4.94,3.312a5.118,5.118,0,0,1-2.936-.934l1.27-1.953A2.534,2.534,0,0,0,1427.713,311.61Z" transform="translate(-1412.697 -293.38)"/>
            <path id="Path_1417" data-name="Path 1417" class="cls-1" d="M2042.506,282.14c3.981,0,6.773,2.548,6.773,6.256a8.979,8.979,0,0,1-8.807,8.748c-4.009,0-6.8-2.576-6.8-6.311A8.938,8.938,0,0,1,2042.506,282.14Zm-2,12.625a6.291,6.291,0,0,0,5.984-6.228,3.844,3.844,0,0,0-4.009-4.019,6.249,6.249,0,0,0-6.011,6.2A3.858,3.858,0,0,0,2040.5,294.765Z" transform="translate(-2003.78 -282.14)"/>
            <path id="Path_1418" data-name="Path 1418" class="cls-1" d="M2666.85,293.72h2.736l1.018,10.106a11.813,11.813,0,0,1,.056,1.529h.057s.339-.822.677-1.529l5.023-10.078h2.541l1.1,10.078c.057.594.084,1.529.084,1.529h.057a15.812,15.812,0,0,1,.649-1.529l4.968-10.106h2.936l-7.368,14.323h-3.021l-1.187-9.256c-.084-.736-.084-1.528-.084-1.528h-.056s-.338.793-.706,1.528l-4.711,9.256h-2.964Z" transform="translate(-2618.555 -293.38)"/>
            <path id="Path_1419" data-name="Path 1419" class="cls-1" d="M3433.095,282.14c3.98,0,6.774,2.548,6.774,6.256a8.979,8.979,0,0,1-8.807,8.748c-4.009,0-6.8-2.576-6.8-6.311A8.936,8.936,0,0,1,3433.095,282.14Zm-2,12.625a6.291,6.291,0,0,0,5.984-6.228,3.843,3.843,0,0,0-4.008-4.019,6.25,6.25,0,0,0-6.012,6.2A3.858,3.858,0,0,0,3431.091,294.765Z" transform="translate(-3353.948 -282.14)"/>
          </g>
        </g>
        <g id="Group_1816" data-name="Group 1816">
          <path id="Path_1400" data-name="Path 1400" class="cls-2" d="M296.342,1.932s.826-3.856,3.927.664c0,0,4.988,5.485,3.517,12.38a19.1,19.1,0,0,1-1.482,4.278,19.365,19.365,0,0,1-4.528,5.965l-4.035,3.69s-4.278,2.821-3.37-.746c0,0,.044-1.477.759-1.772a1.33,1.33,0,0,0,.466-1.955s-.429-.842.786-1.587a1.172,1.172,0,0,0,.388-1.717,1.6,1.6,0,0,1,.918-1.719s.927-.137.388-1.717c0,0-.112-1,.656-1.19,0,0,1.112-.165.124-1.452,0,0-.588-.894.6-1.561,0,0,.768-.189-.089-1.609,0,0-.507-.6.6-1.3,0,0,.608-.241-.035-1.5,0,0-.564-1.237.362-1.638,0,0,.687-.479.176-1.61C296.471,5.835,295.819,2.99,296.342,1.932Z" transform="translate(-282.529 -0.399)"/>
          <path id="Path_1401" data-name="Path 1401" class="cls-2" d="M11.881,18.8s.837-2.01-.91-1.525-5.1,3.168-5.1,3.168S.641,23.219,0,31.611c0,0,.1,8.547,2.614,12.173l2.191,2.995s.983.5,1.265-1.168l.751-3.091a1.3,1.3,0,0,1,.791-.8S8.3,41.51,7.551,40.3c0,0-.216-.685.71-1.085a.868.868,0,0,0,.34-.2,1.6,1.6,0,0,0,.046-1.781A7.462,7.462,0,0,1,8.622,35.7,7.814,7.814,0,0,1,9.89,32.109s3.57-6.035,2.1-9.06A6.111,6.111,0,0,1,11.881,18.8Z" transform="translate(0 -16.757)"/>
          <path id="Path_1402" data-name="Path 1402" class="cls-3" d="M327.608,150.364c0,.047.059.718-.152.791-.168.057-.482-.279-.628-.627-.2-.482-.031-.852-.287-1.04-.122-.089-.172-.015-.376-.124a.807.807,0,0,1-.44-.565c-.016-.138,0-.389.154-.475.24-.135.662.239.815.374A3.028,3.028,0,0,1,327.608,150.364Z" transform="translate(-319.362 -143.616)"/>
          <path id="Path_1403" data-name="Path 1403" class="cls-3" d="M298.527,217.164a.805.805,0,0,1,0,.633c-.081.144-.2.178-.186.253.027.166.608.083.721.343a.329.329,0,0,1-.123.38c-.079.044-.212.044-.815-.374-.7-.488-.76-.652-1.034-.656a1.224,1.224,0,0,1-.5-.06c-.09-.034-.241-.092-.251-.188-.016-.145.312-.2.341-.411.02-.142-.1-.279-.19-.377-.157-.178-.279-.179-.313-.314-.028-.108.013-.253.092-.285.114-.047.228.162.376.124a.308.308,0,0,0,.186-.253c.036-.257-.27-.394-.222-.6a.306.306,0,0,1,.28-.221c.267.015.2.633.663,1.164C297.962,216.789,298.362,216.707,298.527,217.164Z" transform="translate(-290.739 -208.363)"/>
          <path id="Path_1404" data-name="Path 1404" class="cls-3" d="M263.531,307.7c.1-.086.333.106.407.029.053-.056-.006-.226-.1-.347-.167-.226-.352-.164-.6-.407-.108-.107-.076-.124-.219-.282a2.485,2.485,0,0,0-.407-.345c-.65-.483-.758-.527-.877-.5a.383.383,0,0,1-.219.032c-.114-.032-.125-.127-.251-.188s-.274-.061-.313,0c-.051.084.15.239.1.346-.045.089-.211.041-.249.126s.04.187.125.252c.123.092.251.056.5.06a1.435,1.435,0,0,1,.5.06c.149.061.18.151.567.817a8.139,8.139,0,0,0,.5.691.434.434,0,0,0,.251.188.266.266,0,0,0,.219-.032C263.6,308.085,263.42,307.79,263.531,307.7Z" transform="translate(-256.476 -295.99)"/>
          <path id="Path_1405" data-name="Path 1405" class="cls-3" d="M243.175,393.984a.459.459,0,0,0-.345-.219c-.151-.015-.235.061-.313,0a.212.212,0,0,1-.063-.127c-.036-.113-.133-.18-.689-.438-.3-.141-.363-.161-.439-.25s-.115-.169-.157-.158-.007.1-.063.19-.195.116-.468.16c-.069.011-.219.032-.219.032h0s.044.095.063.127c.089.14.366.018.47.155a.284.284,0,0,1,.031.221c-.019.084-.069.115-.063.19.006.056.036.063.063.126.049.113-.015.173,0,.316.005.042.023.2.125.252a.309.309,0,0,0,.343-.1.813.813,0,0,0,.123-.38c.008-.052.011-.089.031-.095.037-.012.088.091.219.283a2.043,2.043,0,0,0,.219.283c.108.112.162.167.251.188a.4.4,0,0,0,.343-.1c.143-.132.09-.3.217-.348.058-.022.09,0,.219-.032.1-.028.119-.056.125-.063C243.258,394.129,243.185,394,243.175,393.984Z" transform="translate(-236.735 -380.379)"/>
          <path id="Path_1406" data-name="Path 1406" class="cls-3" d="M224.254,483.76a.243.243,0,0,0,.063-.19.226.226,0,0,0-.157-.157c-.109-.032-.144.051-.343.1-.14.032-.209.011-.439.066-.066.016-.119.032-.125.063s.036.059.157.158c.146.118.159.136.157.158-.005.072-.19.114-.249.127-.151.034-.239.016-.439.066-.08.02-.111.034-.125.063-.033.071.053.2.125.253C223.232,484.725,224.077,484,224.254,483.76Z" transform="translate(-219.615 -468.126)"/>
          <path id="Path_1407" data-name="Path 1407" class="cls-3" d="M238.7,500.829c.022.016.331.243.284.408-.012.04-.038.058-.031.095.016.077.144.068.251.188a.179.179,0,0,1,.063.127.189.189,0,0,1-.157.158c-.129.021-.219-.131-.282-.093-.026.016-.038.074-.063.19-.013.061-.013.082-.031.095-.04.028-.114-.02-.188-.063-.19-.108-.366-.209-.47-.155-.08.042-.083.158-.157.158a.7.7,0,0,1-.094-.032.485.485,0,0,0-.094-.032c-.072.009-.078.142-.155.158a.125.125,0,0,1-.094-.032c-.1-.07-.053-.178-.125-.253-.09-.09-.284-.053-.407-.029s-.193.063-.219.032.018-.114.063-.19a1.216,1.216,0,0,1,.186-.253c.428-.413.642-.62.84-.667A1.133,1.133,0,0,1,238.7,500.829Z" transform="translate(-233.154 -484.79)"/>
          <path id="Path_1408" data-name="Path 1408" class="cls-3" d="M165.147,462.148c0,.211-.717.272-1.622.514a.609.609,0,0,1-.313,0c-.037-.01-.223-.061-.251-.188a.241.241,0,0,1,.063-.19c.224-.268.758.158,1.28-.1.219-.109.291-.268.5-.255C164.958,461.938,165.146,462.041,165.147,462.148Z" transform="translate(-161.7 -447.327)"/>
          <path id="Path_1409" data-name="Path 1409" class="cls-3" d="M203.885,586.322a.927.927,0,0,0-.5-.691,1.528,1.528,0,0,0-.783-.153c-.251,0-.232.039-.531.034a1.971,1.971,0,0,0-.533.035c-.167.039-.219.082-.249.126a.328.328,0,0,0,0,.317.356.356,0,0,0,.251.187c.226.037.44-.194.468-.16s-.071.089-.063.19a.218.218,0,0,0,.063.127.542.542,0,0,0,.564.186c.069-.032.081-.07.125-.063.107.016.164.263.19.377.048.211.025.3.1.348a.184.184,0,0,0,.219-.032c.1-.127-.144-.4-.034-.538a.2.2,0,0,1,.125-.063c.1-.014.144.07.282.093a.3.3,0,0,0,.219-.032A.351.351,0,0,0,203.885,586.322Z" transform="translate(-198.788 -566.967)"/>
          <path id="Path_1410" data-name="Path 1410" class="cls-3" d="M213.32,641.069c0-.13.2-.174.186-.253s-.223-.119-.376-.124c-.29-.01-.363.1-.533.034a.769.769,0,0,1-.251-.188c-.079-.088-.1-.158-.157-.158s-.055.063-.155.158c-.055.052-.153.146-.251.126-.049-.009-.063-.04-.094-.031-.05.015-.085.113-.063.19.012.038.031.046.157.158a.833.833,0,0,1,.157.157.278.278,0,0,1,.063.126c.018.133-.125.225-.092.285.008.013.022.022.094.032a.717.717,0,0,0,.313,0,.88.88,0,0,0,.249-.126.286.286,0,0,1,.125-.064.28.28,0,0,1,.188.064c.162.1.154.166.251.188a.435.435,0,0,0,.219-.032c.07-.021.1-.031.125-.063.035-.055,0-.133-.031-.222C213.376,641.151,213.318,641.141,213.32,641.069Z" transform="translate(-208.839 -620.133)"/>
          <path id="Path_1411" data-name="Path 1411" class="cls-3" d="M213.869,699.858l.157.158h0a.722.722,0,0,1-.5-.06c-.143-.114-.046-.285-.189-.377a.489.489,0,0,0-.448,0c-.037.02-.066.044-.083.032-.036-.024,0-.193.092-.285a.476.476,0,0,1,.531-.034C213.631,699.407,213.634,699.621,213.869,699.858Z" transform="translate(-209.971 -677.12)"/>
          <path id="Path_1412" data-name="Path 1412" class="cls-3" d="M178.566,762.234c.226.069.323-.021.6.091.125.052.264.137.251.188s-.118.031-.343.1c-.149.043-.237.07-.249.127-.018.08.127.123.125.251a.467.467,0,0,1-.063.19s-.157.228-.28.222-.1-.259-.284-.409c-.136-.11-.424-.114-1-.121-.075,0-.217,0-.282-.093-.042-.059-.017-.107-.031-.221a.622.622,0,0,0-.19-.378c-.149-.113-.289-.015-.376-.124a.332.332,0,0,1,0-.317.427.427,0,0,1,.28-.221.611.611,0,0,1,.407.029c.18.068.182.145.345.219.209.095.278,0,.5.06C178.293,761.913,178.247,762.137,178.566,762.234Z" transform="translate(-174.719 -737.414)"/>
          <path id="Path_1413" data-name="Path 1413" class="cls-3" d="M169.647,855.31c.063.05.144-.04.313,0,.086.019.235.081.251.188s-.085.205-.186.253c-.2.1-.367-.075-.531.034-.081.054-.063.111-.157.158a.409.409,0,0,1-.313,0,1.476,1.476,0,0,1-.439-.25c-.31-.206-.465-.309-.627-.312s-.245.063-.313,0a.266.266,0,0,1,0-.316c.084-.116.205-.047.468-.161.2-.085.2-.156.374-.191a1.51,1.51,0,0,1,.313,0c.215.009.234.021.407.029.316.015.358-.02.407.029C169.736,854.9,169.533,855.222,169.647,855.31Z" transform="translate(-166.19 -827.679)"/>
          <path id="Path_1414" data-name="Path 1414" class="cls-3" d="M168.178,919.727a.583.583,0,0,1-.092.285h0a1.874,1.874,0,0,1-.341.411c-.211.176-.288.084-.5.255-.169.137-.123.2-.341.411a1.412,1.412,0,0,1-.4.285.53.53,0,0,1-.437.066c-.029-.014-.145-.066-.157-.158-.029-.212.533-.381.5-.569-.008-.043-.058-.081-.157-.158-.143-.109-.228-.113-.251-.188a.231.231,0,0,1,.063-.19c.1-.127.255-.119.468-.161a2.177,2.177,0,0,0,.717-.288c.242-.158.242-.259.4-.285C167.882,919.406,168.158,919.566,168.178,919.727Z" transform="translate(-164.555 -890.361)"/>
        </g>
      </g>
    </g>
  </g>
</svg>
