<svg xmlns="http://www.w3.org/2000/svg" xmlns:xlink="http://www.w3.org/1999/xlink" viewBox="0 0 379.105 650.21">
  <defs>
    <style>
      .cls-1, .cls-4, .cls-5, .cls-6, .cls-7 {
        fill: #151515;
      }

      .cls-1 {
        opacity: 0.85;
      }

      .cls-10, .cls-2 {
        fill: #fff;
      }

      .cls-3 {
        fill: none;
      }

      .cls-4 {
        font-size: 35px;
        font-family: Helvetica-Bold, Helvetica;
        font-weight: 700;
      }

      .cls-5 {
        stroke: rgba(21,21,21,0.2);
        stroke-width: 0.6px;
        opacity: 0.1;
      }

      .cls-6 {
        font-size: 25px;
      }

      .cls-6, .cls-7 {
        font-family: Helvetica;
      }

      .cls-7 {
        font-size: 21px;
      }

      .cls-8 {
        fill: #42a739;
      }

      .cls-9 {
        fill: #373737;
      }

      .cls-10 {
        opacity: 0.36;
      }

      .cls-11 {
        stroke: none;
      }

      .cls-12 {
        filter: url(#Rectangle_2271);
      }
    </style>
    <filter id="Rectangle_2271" x="0" y="0" width="379.105" height="650.21" filterUnits="userSpaceOnUse">
      <feOffset dy="12" input="SourceAlpha"/>
      <feGaussianBlur stdDeviation="18" result="blur"/>
      <feFlood flood-opacity="0.102"/>
      <feComposite operator="in" in2="blur"/>
      <feComposite in="SourceGraphic"/>
    </filter>
  </defs>
  <g id="Group_16" data-name="Group 16" transform="translate(-2970 690)">
    <g id="ussd" transform="translate(2171.43 -802.14)">
      <g class="cls-12" transform="matrix(1, 0, 0, 1, 798.57, 112.14)">
        <rect id="Rectangle_2271-2" data-name="Rectangle 2271" class="cls-1" width="271.105" height="542.21" rx="30" transform="translate(54 42)"/>
      </g>
      <path id="Path_2790" data-name="Path 2790" class="cls-2" d="M20,0H218.572a20,20,0,0,1,20,20V495a20,20,0,0,1-20,20H20A20,20,0,0,1,0,495V20A20,20,0,0,1,20,0Z" transform="translate(869 167.153)"/>
      <path id="Rectangle_2282" data-name="Rectangle 2282" class="cls-3" d="M0,0H134.468V1.688a20,20,0,0,1-20,20H20a20,20,0,0,1-20-20Z" transform="translate(1055.454 682.788) rotate(180)"/>
      <text id="_347_21_" data-name="*347*21#" class="cls-4" transform="translate(932.13 306.956)"><tspan x="0" y="0">*4255#</tspan></text>
      <g id="Group_3654" data-name="Group 3654">
        <g id="Ellipse_530" data-name="Ellipse 530" class="cls-5" transform="translate(908 475.001)">
          <circle class="cls-11" cx="22.075" cy="22.075" r="22.075"/>
          <circle class="cls-3" cx="22.075" cy="22.075" r="21.775"/>
        </g>
        <g id="Ellipse_543" data-name="Ellipse 543" class="cls-5" transform="translate(908 423.3)">
          <circle class="cls-11" cx="22.075" cy="22.075" r="22.075"/>
          <circle class="cls-3" cx="22.075" cy="22.075" r="21.775"/>
        </g>
        <g id="Ellipse_546" data-name="Ellipse 546" class="cls-5" transform="translate(908 371.6)">
          <circle class="cls-11" cx="22.075" cy="22.075" r="22.075"/>
          <circle class="cls-3" cx="22.075" cy="22.075" r="21.775"/>
        </g>
        <g id="Ellipse_531" data-name="Ellipse 531" class="cls-5" transform="translate(908 526.67)">
          <circle class="cls-11" cx="22.075" cy="22.075" r="22.075"/>
          <circle class="cls-3" cx="22.075" cy="22.075" r="21.775"/>
        </g>
        <g id="Ellipse_534" data-name="Ellipse 534" class="cls-5" transform="translate(966 475.001)">
          <circle class="cls-11" cx="22.075" cy="22.075" r="22.075"/>
          <circle class="cls-3" cx="22.075" cy="22.075" r="21.775"/>
        </g>
        <g id="Ellipse_544" data-name="Ellipse 544" class="cls-5" transform="translate(966 423.3)">
          <circle class="cls-11" cx="22.075" cy="22.075" r="22.075"/>
          <circle class="cls-3" cx="22.075" cy="22.075" r="21.775"/>
        </g>
        <g id="Ellipse_547" data-name="Ellipse 547" class="cls-5" transform="translate(966 371.6)">
          <circle class="cls-11" cx="22.075" cy="22.075" r="22.075"/>
          <circle class="cls-3" cx="22.075" cy="22.075" r="21.775"/>
        </g>
        <g id="Ellipse_538" data-name="Ellipse 538" class="cls-5" transform="translate(1023 475.001)">
          <circle class="cls-11" cx="22.075" cy="22.075" r="22.075"/>
          <circle class="cls-3" cx="22.075" cy="22.075" r="21.775"/>
        </g>
        <g id="Ellipse_545" data-name="Ellipse 545" class="cls-5" transform="translate(1023 423.3)">
          <circle class="cls-11" cx="22.075" cy="22.075" r="22.075"/>
          <circle class="cls-3" cx="22.075" cy="22.075" r="21.775"/>
        </g>
        <g id="Ellipse_548" data-name="Ellipse 548" class="cls-5" transform="translate(1023 371.6)">
          <circle class="cls-11" cx="22.075" cy="22.075" r="22.075"/>
          <circle class="cls-3" cx="22.075" cy="22.075" r="21.775"/>
        </g>
        <g id="Ellipse_549" data-name="Ellipse 549" class="cls-5" transform="translate(966.1 526.7)">
          <circle class="cls-11" cx="22.075" cy="22.075" r="22.075"/>
          <circle class="cls-3" cx="22.075" cy="22.075" r="21.775"/>
        </g>
        <g id="Ellipse_681" data-name="Ellipse 681" class="cls-5" transform="translate(966.1 578.7)">
          <circle class="cls-11" cx="22.075" cy="22.075" r="22.075"/>
          <circle class="cls-3" cx="22.075" cy="22.075" r="21.775"/>
        </g>
        <g id="Ellipse_550" data-name="Ellipse 550" class="cls-5" transform="translate(1023.1 526.7)">
          <circle class="cls-11" cx="22.075" cy="22.075" r="22.075"/>
          <circle class="cls-3" cx="22.075" cy="22.075" r="21.775"/>
        </g>
        <g id="Group_3655" data-name="Group 3655">
          <text id="_" data-name="*" class="cls-6" transform="translate(923.97 561.956)"><tspan x="0" y="0">*</tspan></text>
          <text id="_7" data-name="7" class="cls-7" transform="translate(924.258 501.956)"><tspan x="0" y="0">7</tspan></text>
          <text id="_4" data-name="4" class="cls-7" transform="translate(923.648 450.255)"><tspan x="0" y="0">4</tspan></text>
          <text id="_1" data-name="1" class="cls-7" transform="translate(925.345 398.555)"><tspan x="0" y="0">1</tspan></text>
          <text id="_8" data-name="8" class="cls-7" transform="translate(981.709 501.956)"><tspan x="0" y="0">8</tspan></text>
          <text id="_5" data-name="5" class="cls-7" transform="translate(981.858 450.255)"><tspan x="0" y="0">5</tspan></text>
          <text id="_2" data-name="2" class="cls-7" transform="translate(982.058 398.555)"><tspan x="0" y="0">2</tspan></text>
          <text id="_9" data-name="9" class="cls-7" transform="translate(1038.714 501.956)"><tspan x="0" y="0">9</tspan></text>
          <text id="_6" data-name="6" class="cls-7" transform="translate(1038.714 450.255)"><tspan x="0" y="0">6</tspan></text>
          <text id="_3" data-name="3" class="cls-7" transform="translate(1038.786 398.555)"><tspan x="0" y="0">3</tspan></text>
          <text id="_0" data-name="0" class="cls-7" transform="translate(981.732 553.655)"><tspan x="0" y="0">0</tspan></text>
          <text id="_2-2" data-name="#" class="cls-7" transform="translate(1038.789 553.655)"><tspan x="0" y="0">#</tspan></text>
        </g>
        <path id="Path_2790-2" data-name="Path 2790" class="cls-8" d="M20.162,16.67l-3.185-3.186a1.661,1.661,0,0,0-2.342.044l-1.6,1.6-.317-.176a15.969,15.969,0,0,1-3.86-2.792,16.058,16.058,0,0,1-2.8-3.86c-.059-.107-.116-.211-.173-.309L6.961,6.914l.529-.53a1.659,1.659,0,0,0,.043-2.342L4.348.856A1.659,1.659,0,0,0,2.007.9l-.9.9.025.024a5.191,5.191,0,0,0-.74,1.3A5.41,5.41,0,0,0,.065,4.455c-.421,3.487,1.173,6.673,5.5,11,5.977,5.977,10.794,5.525,11,5.5a5.382,5.382,0,0,0,1.327-.333,5.173,5.173,0,0,0,1.3-.737l.02.017.909-.891A1.662,1.662,0,0,0,20.162,16.67Z" transform="translate(978.145 590.054)"/>
      </g>
      <path id="Rectangle_2280" data-name="Rectangle 2280" class="cls-9" d="M0,0H134.468V1.688a20,20,0,0,1-20,20H20a20,20,0,0,1-20-20Z" transform="translate(920.986 167.1)"/>
      <circle id="Ellipse_681-2" data-name="Ellipse 681" class="cls-10" cx="2.301" cy="2.301" r="2.301" transform="translate(1014.246 174.845)"/>
      <rect id="Rectangle_2281" data-name="Rectangle 2281" class="cls-10" width="32.533" height="4.603" rx="2.301" transform="translate(970.869 174.845)"/>
    </g>
  </g>
</svg>
