<svg xmlns="http://www.w3.org/2000/svg" viewBox="5437.25 7203.975 158.604 46.43">
  <defs>
    <style>
      .cls-1 {
        fill: #222;
      }

      .cls-2 {
        fill: #c4702e;
      }

      .cls-3 {
        fill: #292e1e;
        opacity: 0.04;
      }
    </style>
  </defs>
  <g id="logo" transform="translate(5437.25 7203.975)">
    <g id="Layer_6" data-name="Layer 6" transform="translate(0 0)">
      <g id="Group_1512" data-name="Group 1512" transform="translate(46.664 11.992)">
        <path id="Path_1415" data-name="Path 1415" class="cls-1" d="M1016.221,282.14c4.817,0,7.1,2.849,7.1,6.829a13.5,13.5,0,0,1-.588,3.36h-13.57a5.531,5.531,0,0,0-.11,1.1c0,2.739,1.8,5,5.3,5a10.81,10.81,0,0,0,5.921-2.154l1.029,2.812a12.753,12.753,0,0,1-7.1,2.41c-5.442,0-8.789-3.287-8.789-7.888C1005.41,287.472,1009.97,282.14,1016.221,282.14Zm3.457,7.523a6.071,6.071,0,0,0,.073-.985,3.372,3.372,0,0,0-3.6-3.725,7.006,7.006,0,0,0-6.4,4.711Z" transform="translate(-1005.41 -282.14)"/>
        <path id="Path_1416" data-name="Path 1416" class="cls-1" d="M1428.568,316.8c1.581,0,2.905-.985,3.934-2.666l1.361-2.191L1429.6,293.72h3.714l2.5,12.49c.183.949.294,2.191.294,2.191h.038s.551-1.205,1.066-2.118l6.987-12.562h4.008L1435.15,315.6c-1.728,2.885-4.082,4.272-6.435,4.272a6.709,6.709,0,0,1-3.825-1.205l1.655-2.52A3.322,3.322,0,0,0,1428.568,316.8Z" transform="translate(-1409.004 -293.281)"/>
        <path id="Path_1417" data-name="Path 1417" class="cls-1" d="M2045.182,282.14c5.186,0,8.824,3.287,8.824,8.071,0,6.427-5.737,11.285-11.474,11.285-5.222,0-8.862-3.323-8.862-8.142C2033.672,287,2039.335,282.14,2045.182,282.14Zm-2.61,16.288a8.154,8.154,0,0,0,7.8-8.034,4.983,4.983,0,0,0-5.222-5.186,8.1,8.1,0,0,0-7.832,8A5,5,0,0,0,2042.572,298.428Z" transform="translate(-1994.729 -282.14)"/>
        <path id="Path_1418" data-name="Path 1418" class="cls-1" d="M2666.85,293.72h3.565l1.326,13.038a15.115,15.115,0,0,1,.073,1.972h.073s.442-1.06.883-1.972l6.545-13h3.31l1.436,13c.073.767.11,1.972.11,1.972h.073a20.361,20.361,0,0,1,.846-1.972l6.472-13.038h3.825l-9.6,18.478h-3.936l-1.545-11.942c-.11-.949-.11-1.972-.11-1.972h-.073s-.441,1.023-.92,1.972l-6.137,11.942H2669.2Z" transform="translate(-2603.931 -293.281)"/>
        <path id="Path_1419" data-name="Path 1419" class="cls-1" d="M3435.77,282.14c5.185,0,8.826,3.287,8.826,8.071,0,6.427-5.737,11.285-11.474,11.285-5.222,0-8.862-3.323-8.862-8.142C3424.26,287,3429.923,282.14,3435.77,282.14Zm-2.611,16.288a8.154,8.154,0,0,0,7.8-8.034,4.983,4.983,0,0,0-5.222-5.186,8.1,8.1,0,0,0-7.833,8A5,5,0,0,0,3433.159,298.428Z" transform="translate(-3332.657 -282.14)"/>
      </g>
      <g id="Group_1816" data-name="Group 1816">
        <path id="Path_1400" data-name="Path 1400" class="cls-2" d="M299.609,2.764s1.269-5.95,6.03,1.024c0,0,7.66,8.464,5.4,19.1a29.557,29.557,0,0,1-2.276,6.6,29.86,29.86,0,0,1-6.954,9.2l-6.2,5.693s-6.569,4.352-5.175-1.151c0,0,.068-2.28,1.165-2.735,0,0,2.028-1.233.715-3.016,0,0-.658-1.3,1.207-2.449a1.812,1.812,0,0,0,.6-2.649,2.468,2.468,0,0,1,1.409-2.653s1.424-.211.6-2.649c0,0-.172-1.546,1.007-1.837,0,0,1.708-.254.191-2.24,0,0-.9-1.379.922-2.408,0,0,1.179-.292-.136-2.482,0,0-.778-.932.925-2,0,0,.934-.372-.054-2.32,0,0-.866-1.908.556-2.527,0,0,1.054-.739.271-2.484C299.806,8.787,298.805,4.4,299.609,2.764Z" transform="translate(-278.397 -0.399)"/>
        <path id="Path_1401" data-name="Path 1401" class="cls-2" d="M18.245,19.671s1.285-3.1-1.4-2.353S9.02,22.207,9.02,22.207.984,26.486,0,39.435c0,0,.157,13.188,4.015,18.783l3.364,4.621s1.51.765,1.943-1.8l1.153-4.769A2,2,0,0,1,11.69,55.04s1.056-.332-.094-2.2c0,0-.331-1.056,1.09-1.673a1.331,1.331,0,0,0,.522-.309,2.471,2.471,0,0,0,.071-2.748,11.568,11.568,0,0,1-.039-2.367A12.092,12.092,0,0,1,15.187,40.2s5.483-9.312,3.218-13.98A9.471,9.471,0,0,1,18.245,19.671Z" transform="translate(0 -16.516)"/>
        <path id="Path_1402" data-name="Path 1402" class="cls-3" d="M328.18,150.964c.005.06.076.927-.2,1.02-.219.073-.627-.36-.818-.809-.264-.621-.041-1.1-.374-1.341-.158-.115-.224-.019-.49-.16a1.044,1.044,0,0,1-.574-.729c-.021-.178,0-.5.2-.612.312-.174.863.309,1.061.482A3.9,3.9,0,0,1,328.18,150.964Z" transform="translate(-312.425 -142.259)"/>
        <path id="Path_1403" data-name="Path 1403" class="cls-3" d="M299.24,217.747a1.029,1.029,0,0,1,0,.816c-.105.186-.258.229-.242.327.036.214.793.107.939.442a.422.422,0,0,1-.16.49c-.1.057-.276.056-1.061-.482-.918-.63-.99-.841-1.347-.847a1.609,1.609,0,0,1-.653-.078c-.117-.044-.314-.119-.327-.242-.021-.187.406-.255.444-.531.026-.183-.133-.36-.247-.487-.2-.23-.363-.231-.408-.4-.037-.14.016-.327.12-.367.148-.061.3.209.49.16a.4.4,0,0,0,.242-.327c.047-.331-.352-.508-.289-.772a.4.4,0,0,1,.365-.286c.347.02.262.816.863,1.5C298.5,217.262,299.025,217.156,299.24,217.747Z" transform="translate(-284.083 -206.392)"/>
        <path id="Path_1404" data-name="Path 1404" class="cls-3" d="M264.359,308.293c.133-.111.434.137.531.038.069-.073-.008-.291-.125-.447-.218-.291-.459-.211-.776-.525-.14-.138-.1-.16-.286-.364a3.236,3.236,0,0,0-.531-.445c-.847-.623-.988-.68-1.143-.645a.5.5,0,0,1-.286.041c-.149-.041-.163-.163-.327-.242s-.358-.078-.408,0c-.066.108.2.309.125.447-.058.114-.275.053-.324.163-.041.091.052.241.163.325.161.119.327.072.653.078a1.887,1.887,0,0,1,.653.077c.195.078.235.2.739,1.054a10.5,10.5,0,0,0,.656.891.565.565,0,0,0,.327.242.35.35,0,0,0,.286-.041C264.449,308.792,264.214,308.412,264.359,308.293Z" transform="translate(-250.155 -293.188)"/>
        <path id="Path_1405" data-name="Path 1405" class="cls-3" d="M244.009,394.33a.6.6,0,0,0-.449-.282c-.2-.019-.306.078-.408,0a.273.273,0,0,1-.082-.163c-.047-.145-.173-.233-.9-.565-.4-.182-.473-.208-.571-.322-.082-.1-.15-.218-.2-.2s-.01.135-.082.245-.254.149-.609.207c-.09.015-.286.041-.286.041h0s.057.122.082.163c.116.181.476.023.612.2a.364.364,0,0,1,.041.286c-.025.108-.09.148-.082.245.007.072.047.082.082.163.063.146-.02.223,0,.408.007.054.031.252.163.324a.405.405,0,0,0,.447-.124,1.041,1.041,0,0,0,.16-.49c.011-.068.014-.114.041-.122.048-.015.114.117.286.365a2.641,2.641,0,0,0,.286.365c.141.144.211.216.326.242a.521.521,0,0,0,.447-.125c.186-.17.118-.385.282-.449.075-.029.117.005.286-.041.13-.037.155-.072.163-.082C244.117,394.516,244.022,394.353,244.009,394.33Z" transform="translate(-230.607 -376.778)"/>
        <path id="Path_1406" data-name="Path 1406" class="cls-3" d="M224.711,483.863a.312.312,0,0,0,.082-.245.293.293,0,0,0-.2-.2c-.142-.041-.188.065-.447.124-.182.041-.272.014-.571.085-.086.021-.155.041-.163.082s.047.076.2.2c.19.152.207.176.2.2-.007.093-.247.147-.325.163-.2.045-.312.021-.571.085-.1.025-.145.044-.163.082-.043.092.069.254.163.326C223.379,485.107,224.48,484.172,224.711,483.863Z" transform="translate(-213.655 -463.692)"/>
        <path id="Path_1407" data-name="Path 1407" class="cls-3" d="M239.3,500.892c.028.02.432.314.369.527-.015.051-.05.075-.041.123.02.1.188.088.327.242a.229.229,0,0,1,.082.163.245.245,0,0,1-.2.2c-.169.028-.286-.169-.367-.12-.033.02-.049.095-.082.245-.016.079-.017.106-.041.122-.052.037-.149-.026-.245-.082-.247-.139-.477-.269-.612-.2-.1.054-.109.2-.2.2a.889.889,0,0,1-.122-.041.635.635,0,0,0-.122-.041c-.094.011-.1.183-.2.2a.163.163,0,0,1-.122-.041c-.129-.091-.069-.23-.163-.327-.117-.116-.369-.068-.531-.038s-.252.082-.286.041.024-.146.082-.245a1.566,1.566,0,0,1,.242-.327c.557-.533.836-.8,1.094-.861A1.488,1.488,0,0,1,239.3,500.892Z" transform="translate(-227.061 -480.199)"/>
        <path id="Path_1408" data-name="Path 1408" class="cls-3" d="M165.81,462.212c0,.272-.933.351-2.113.663a.8.8,0,0,1-.408,0c-.048-.013-.291-.079-.326-.242a.31.31,0,0,1,.082-.245c.291-.346.988.2,1.668-.131.286-.141.38-.345.649-.329C165.563,461.941,165.808,462.073,165.81,462.212Z" transform="translate(-156.307 -443.091)"/>
        <path id="Path_1409" data-name="Path 1409" class="cls-3" d="M204.685,586.567a1.2,1.2,0,0,0-.656-.891,2.008,2.008,0,0,0-1.02-.2c-.327,0-.3.05-.692.044a2.579,2.579,0,0,0-.694.045c-.217.05-.286.105-.324.163a.419.419,0,0,0,0,.408.463.463,0,0,0,.327.242c.294.048.574-.25.609-.207.021.026-.092.114-.082.245a.281.281,0,0,0,.082.163.71.71,0,0,0,.735.24c.09-.041.1-.091.163-.082.14.02.213.34.247.487.062.272.033.39.124.449a.242.242,0,0,0,.286-.041c.131-.163-.187-.511-.045-.694a.258.258,0,0,1,.163-.082c.136-.018.187.091.367.12a.4.4,0,0,0,.286-.041A.45.45,0,0,0,204.685,586.567Z" transform="translate(-193.032 -561.597)"/>
        <path id="Path_1410" data-name="Path 1410" class="cls-3" d="M213.835,641.269c.006-.168.26-.225.242-.327s-.291-.153-.49-.16c-.377-.013-.472.135-.694.044a1,1,0,0,1-.327-.242c-.1-.114-.135-.2-.2-.2s-.071.082-.2.2c-.071.067-.2.189-.327.163-.063-.012-.082-.052-.122-.041-.065.019-.111.146-.082.245.015.049.041.06.2.2a1.078,1.078,0,0,1,.2.2.357.357,0,0,1,.082.163c.024.172-.163.291-.12.367.01.017.029.028.122.041a.942.942,0,0,0,.408,0,1.141,1.141,0,0,0,.324-.163.374.374,0,0,1,.163-.082.367.367,0,0,1,.245.082c.211.128.2.214.326.242a.573.573,0,0,0,.286-.041c.091-.027.137-.041.163-.082.045-.071,0-.172-.041-.286C213.908,641.374,213.831,641.362,213.835,641.269Z" transform="translate(-202.984 -614.259)"/>
        <path id="Path_1411" data-name="Path 1411" class="cls-3" d="M214.2,700.041l.2.2h0a.95.95,0,0,1-.653-.078c-.186-.147-.06-.367-.247-.487a.642.642,0,0,0-.583,0c-.048.026-.086.056-.109.041-.047-.031,0-.249.12-.367a.624.624,0,0,1,.692-.044C213.886,699.458,213.889,699.735,214.2,700.041Z" transform="translate(-204.105 -670.706)"/>
        <path id="Path_1412" data-name="Path 1412" class="cls-3" d="M179.223,762.449c.295.089.42-.027.775.118.163.067.343.176.326.243s-.154.041-.447.125c-.194.056-.308.09-.324.163-.023.1.165.158.163.324a.6.6,0,0,1-.082.245s-.2.295-.365.286-.128-.334-.369-.527c-.178-.142-.553-.146-1.3-.156-.1,0-.283,0-.367-.12-.054-.076-.022-.138-.041-.286a.8.8,0,0,0-.247-.487c-.195-.146-.377-.019-.49-.16a.424.424,0,0,1,0-.408.556.556,0,0,1,.365-.286.8.8,0,0,1,.531.038c.235.087.237.187.449.282.272.122.362,0,.653.078C178.867,762.035,178.807,762.324,179.223,762.449Z" transform="translate(-169.198 -730.428)"/>
        <path id="Path_1413" data-name="Path 1413" class="cls-3" d="M170.269,855.485c.082.064.187-.051.408,0,.111.025.306.1.327.242s-.111.265-.242.327c-.266.124-.478-.1-.691.044-.106.07-.082.144-.2.2a.537.537,0,0,1-.408,0,1.923,1.923,0,0,1-.571-.322c-.4-.266-.606-.4-.816-.4s-.32.082-.408,0a.341.341,0,0,1,0-.408c.11-.15.267-.061.609-.207.256-.109.266-.2.487-.247a1.989,1.989,0,0,1,.408,0c.28.012.3.027.531.038.412.019.467-.026.531.038C170.385,854.958,170.12,855.372,170.269,855.485Z" transform="translate(-160.753 -819.838)"/>
        <path id="Path_1414" data-name="Path 1414" class="cls-3" d="M168.867,919.811a.747.747,0,0,1-.12.367h0a2.416,2.416,0,0,1-.445.531c-.275.227-.375.109-.649.329-.22.176-.16.256-.445.531a1.836,1.836,0,0,1-.527.367.7.7,0,0,1-.569.085c-.038-.018-.189-.085-.2-.2-.038-.273.694-.492.647-.735-.011-.056-.075-.1-.2-.2-.186-.14-.3-.146-.327-.243a.3.3,0,0,1,.082-.245c.134-.163.332-.154.609-.208a2.847,2.847,0,0,0,.934-.371c.316-.2.316-.334.527-.368C168.481,919.4,168.84,919.6,168.867,919.811Z" transform="translate(-159.134 -881.926)"/>
      </g>
    </g>
  </g>
</svg>
