<svg xmlns="http://www.w3.org/2000/svg" viewBox="0 0 148.327 48.708">
  <defs>
    <style>
      .cls-1 {
        fill: #151515;
        opacity: 0.95;
      }

      .cls-2 {
        fill: #fff;
      }
    </style>
  </defs>
  <g id="Group_1870" data-name="Group 1870" transform="translate(0)">
    <g id="available-on-the-app-store" transform="translate(0)">
      <g id="Artboard-1">
        <g id="App-Store">
          <path id="background" class="cls-1" d="M5.918,0H142.194a5.942,5.942,0,0,1,6.025,5.845V42.863a5.942,5.942,0,0,1-6.025,5.845H5.918A5.942,5.942,0,0,1-.108,42.863V5.845A5.942,5.942,0,0,1,5.918,0Z" transform="translate(0.108)"/>
          <g id="icon" transform="translate(13.153 8.573)">
            <path id="Fill-2" class="cls-2" d="M19.311,15.37a6.271,6.271,0,0,1,3.073-5.26,6.732,6.732,0,0,0-5.212-2.737c-2.189-.224-4.318,1.276-5.433,1.276C10.6,8.648,8.877,7.4,7.03,7.43a6.956,6.956,0,0,0-5.835,3.458c-2.521,4.238-.643,10.472,1.778,13.9,1.215,1.676,2.621,3.556,4.479,3.488,1.808-.068,2.491-1.12,4.67-1.12s2.8,1.12,4.69,1.081c1.948-.029,3.163-1.685,4.338-3.38a13.557,13.557,0,0,0,1.978-3.916,6.107,6.107,0,0,1-3.816-5.572" transform="translate(0.002 -0.699)"/>
            <path id="Fill-3" class="cls-2" d="M16.573,4.423A6.059,6.059,0,0,0,18.029,0a6.529,6.529,0,0,0-4.188,2.1,5.817,5.817,0,0,0-1.5,4.257,5.418,5.418,0,0,0,4.228-1.939" transform="translate(-0.824)"/>
          </g>
          <g id="Group_1723" data-name="Group 1723" transform="translate(46.185 21.315)">
            <path id="Fill-4" class="cls-2" d="M12.5,14.7H9.971L8.586,10.473H3.765L2.45,14.7H-.011L4.759.312H7.712L12.5,14.7Zm-4.328-6L6.919,4.949c-.131-.39-.382-1.286-.743-2.708h-.05c-.151.614-.382,1.52-.7,2.708L4.187,8.7Z" transform="translate(0.011 -0.108)"/>
            <path id="Fill-5" class="cls-2" d="M25.805,9.791a5.738,5.738,0,0,1-1.486,4.179,4.394,4.394,0,0,1-3.294,1.364,3.33,3.33,0,0,1-3.053-1.471v5.446h-2.38V8.134c0-1.111-.03-2.241-.09-3.41h2.089l.131,1.646h.04a4,4,0,0,1,3.605-1.861A4.014,4.014,0,0,1,24.52,5.962a5.535,5.535,0,0,1,1.285,3.828Zm-2.42.078a4.141,4.141,0,0,0-.7-2.494,2.458,2.458,0,0,0-2.069-1.023,2.572,2.572,0,0,0-1.6.565A2.6,2.6,0,0,0,18.083,8.4a3.067,3.067,0,0,0-.11.7v1.734a2.74,2.74,0,0,0,.713,1.909,2.407,2.407,0,0,0,1.858.779,2.478,2.478,0,0,0,2.089-1A4.3,4.3,0,0,0,23.385,9.868Z" transform="translate(-1.031 -0.507)"/>
            <path id="Fill-6" class="cls-2" d="M38.982,9.791A5.738,5.738,0,0,1,37.5,13.97,4.394,4.394,0,0,1,34.2,15.334a3.33,3.33,0,0,1-3.053-1.471v5.446h-2.38V8.134c0-1.111-.03-2.241-.09-3.41h2.089L30.9,6.371h.04A4.3,4.3,0,0,1,37.7,5.962,5.535,5.535,0,0,1,38.982,9.791Zm-2.42.078a4.141,4.141,0,0,0-.7-2.494A2.458,2.458,0,0,0,33.79,6.352a2.572,2.572,0,0,0-1.6.565A2.65,2.65,0,0,0,31.259,8.4a3.066,3.066,0,0,0-.11.7v1.734a2.74,2.74,0,0,0,.713,1.909,2.407,2.407,0,0,0,1.858.779,2.465,2.465,0,0,0,2.089-1A4.241,4.241,0,0,0,36.561,9.868Z" transform="translate(-1.915 -0.507)"/>
            <path id="Fill-7" class="cls-2" d="M53.81,10.646a3.8,3.8,0,0,1-1.316,2.991,5.957,5.957,0,0,1-4.037,1.257,7.237,7.237,0,0,1-3.836-.9l.552-1.919a6.829,6.829,0,0,0,3.435.9A3.305,3.305,0,0,0,50.7,12.39a1.887,1.887,0,0,0,.753-1.568,2,2,0,0,0-.613-1.471A5.781,5.781,0,0,0,48.789,8.24c-2.621-.945-3.917-2.319-3.917-4.121a3.611,3.611,0,0,1,1.376-2.9A5.569,5.569,0,0,1,49.893.086a7.353,7.353,0,0,1,3.364.682l-.6,1.87A6.075,6.075,0,0,0,49.8,1.976a3.02,3.02,0,0,0-1.968.594,1.706,1.706,0,0,0-.593,1.305,1.729,1.729,0,0,0,.683,1.4,7.738,7.738,0,0,0,2.159,1.111A7.263,7.263,0,0,1,52.9,8.142a3.58,3.58,0,0,1,.914,2.5" transform="translate(-2.985 -0.086)"/>
            <path id="Fill-8" class="cls-2" d="M62.443,6.21H59.822v5.036c0,1.276.462,1.919,1.386,1.919a4.538,4.538,0,0,0,1.054-.107l.07,1.753a5.668,5.668,0,0,1-1.848.253,2.89,2.89,0,0,1-2.2-.838,3.981,3.981,0,0,1-.793-2.8V6.2H55.935V4.476h1.557v-1.9l2.33-.682V4.476h2.621V6.21" transform="translate(-3.745 -0.258)"/>
            <path id="Fill-9" class="cls-2" d="M74.8,9.831a5.6,5.6,0,0,1-1.406,3.926,5.11,5.11,0,0,1-3.917,1.578,4.893,4.893,0,0,1-3.756-1.51,5.386,5.386,0,0,1-1.4-3.819,5.557,5.557,0,0,1,1.436-3.945,5.09,5.09,0,0,1,3.886-1.539,4.962,4.962,0,0,1,3.786,1.52A5.317,5.317,0,0,1,74.8,9.831Zm-2.46.049A4.541,4.541,0,0,0,71.7,7.434a2.5,2.5,0,0,0-4.318,0,4.557,4.557,0,0,0-.633,2.494,4.517,4.517,0,0,0,.633,2.445,2.475,2.475,0,0,0,4.3-.019A4.611,4.611,0,0,0,72.335,9.879Z" transform="translate(-4.307 -0.508)"/>
            <path id="Fill-10" class="cls-2" d="M83.426,6.751a4.535,4.535,0,0,0-.753-.058,2.267,2.267,0,0,0-1.938.916,3.4,3.4,0,0,0-.592,2.046V15.1h-2.38V7.988c0-1.2-.02-2.289-.07-3.263H79.76l.09,1.987h.07a3.539,3.539,0,0,1,1.185-1.646,2.95,2.95,0,0,1,1.717-.555,5.154,5.154,0,0,1,.593.039l.01,2.2" transform="translate(-5.205 -0.507)"/>
            <path id="Fill-11" class="cls-2" d="M94.543,9.417a5.116,5.116,0,0,1-.09,1.042h-7.13a2.967,2.967,0,0,0,1.034,2.348,3.634,3.634,0,0,0,2.33.721,8.222,8.222,0,0,0,2.882-.487l.372,1.6a9.166,9.166,0,0,1-3.585.643,5.284,5.284,0,0,1-3.907-1.422,5.16,5.16,0,0,1-1.416-3.809,5.837,5.837,0,0,1,1.326-3.906,4.607,4.607,0,0,1,3.736-1.666,4.01,4.01,0,0,1,3.495,1.666,5.512,5.512,0,0,1,.954,3.273Zm-2.27-.594a3.034,3.034,0,0,0-.462-1.773,2.091,2.091,0,0,0-1.888-.964,2.28,2.28,0,0,0-1.888.935,3.4,3.4,0,0,0-.7,1.792l4.941.01Z" transform="translate(-5.698 -0.504)"/>
          </g>
          <g id="Available-on-the" transform="translate(47.069 8.933)">
            <path id="Fill-12" class="cls-2" d="M6.124,7.557H4.878L4.2,5.482H1.826L1.173,7.557H-.032L2.308.484H3.754ZM3.985,4.605,3.372,2.754C3.312,2.569,3.191,2.121,3,1.42H2.98c-.08.3-.181.74-.351,1.335l-.6,1.851Z" transform="translate(0.032 -0.114)"/>
            <path id="Fill-13" class="cls-2" d="M12.49,2.659,10.5,7.764H9.367l-1.928-5.1H8.694l.894,2.7c.151.448.281.877.382,1.286H10c.09-.37.221-.8.382-1.286l.884-2.7H12.49" transform="translate(-0.469 -0.321)"/>
            <path id="Fill-14" class="cls-2" d="M17.162,7.754l-.09-.584h-.03a1.829,1.829,0,0,1-1.536.7,1.5,1.5,0,0,1-1.607-1.5c0-1.257,1.125-1.909,3.073-1.909v-.1c0-.672-.372-1-1.095-1a2.509,2.509,0,0,0-1.376.38L14.259,3a3.458,3.458,0,0,1,1.808-.438,1.849,1.849,0,0,1,2.069,2.114v1.88a6.591,6.591,0,0,0,.08,1.218l-1.054-.019ZM17,5.212c-1.3,0-1.948.3-1.948,1.033a.734.734,0,0,0,.8.8A1.1,1.1,0,0,0,17,6Z" transform="translate(-0.903 -0.312)"/>
            <path id="Fill-15" class="cls-2" d="M21.179,1.591A.678.678,0,1,1,21.2.237a.671.671,0,0,1,.713.672.674.674,0,0,1-.733.682Zm-.562.838h1.165V7.524H20.616Z" transform="translate(-1.345 -0.091)"/>
            <path id="Fill-16" class="cls-2" d="M24.1.075h1.165V7.508H24.1Z" transform="translate(-1.588 -0.075)"/>
            <path id="Fill-17" class="cls-2" d="M30.435,7.753l-.09-.584h-.03a1.829,1.829,0,0,1-1.536.7,1.5,1.5,0,0,1-1.607-1.5c0-1.257,1.125-1.909,3.073-1.909v-.1c0-.672-.372-1-1.095-1a2.509,2.509,0,0,0-1.376.38l-.241-.75a3.458,3.458,0,0,1,1.808-.438,1.849,1.849,0,0,1,2.069,2.114v1.88a7.816,7.816,0,0,0,.07,1.218H30.435v-.01Zm-.161-2.543c-1.3,0-1.948.3-1.948,1.033a.734.734,0,0,0,.8.8A1.1,1.1,0,0,0,30.274,6Z" transform="translate(-1.794 -0.311)"/>
            <path id="Fill-18" class="cls-2" d="M36.6,7.635a1.8,1.8,0,0,1-1.657-.906h-.02l-.07.789h-.994c.03-.409.04-.867.04-1.374V.075h1.175V3.163h.02a1.821,1.821,0,0,1,1.677-.848c1.265,0,2.149,1.052,2.149,2.582A2.479,2.479,0,0,1,36.6,7.635ZM36.357,3.2a1.319,1.319,0,0,0-1.285,1.354v.9a1.264,1.264,0,0,0,1.265,1.276c.874,0,1.4-.692,1.4-1.792C37.733,3.9,37.19,3.2,36.357,3.2Z" transform="translate(-2.242 -0.075)"/>
            <path id="Fill-19" class="cls-2" d="M41.133.075H42.3V7.508H41.133Z" transform="translate(-2.731 -0.075)"/>
            <path id="Fill-20" class="cls-2" d="M48.863,5.472h-3.5a1.49,1.49,0,0,0,1.657,1.51,4.059,4.059,0,0,0,1.416-.244l.181.789a4.375,4.375,0,0,1-1.757.312,2.4,2.4,0,0,1-2.621-2.572A2.521,2.521,0,0,1,46.724,2.53a2.173,2.173,0,0,1,2.189,2.426,1.918,1.918,0,0,1-.05.516ZM47.8,4.663c0-.789-.412-1.344-1.155-1.344a1.362,1.362,0,0,0-1.275,1.344Z" transform="translate(-2.939 -0.309)"/>
            <path id="Fill-21" class="cls-2" d="M56.6,7.87a2.458,2.458,0,0,1-2.531-2.62,2.517,2.517,0,0,1,2.621-2.7,2.44,2.44,0,0,1,2.531,2.611A2.536,2.536,0,0,1,56.6,7.87Zm.05-4.491c-.844,0-1.386.77-1.386,1.831s.552,1.812,1.376,1.812S58.02,6.2,58.02,5.182,57.477,3.379,56.654,3.379Z" transform="translate(-3.6 -0.311)"/>
            <path id="Fill-22" class="cls-2" d="M65.993,7.752H64.828V4.82c0-.906-.362-1.354-1.064-1.354A1.187,1.187,0,0,0,62.6,4.713v3.03H61.433V4.109c0-.448-.01-.935-.04-1.461h1.024l.05.789h.03a1.9,1.9,0,0,1,1.667-.9c1.1,0,1.828.818,1.828,2.153V7.752" transform="translate(-4.091 -0.31)"/>
            <path id="Fill-23" class="cls-2" d="M74.287,3.383H73V5.858c0,.633.231.945.683.945a2.632,2.632,0,0,0,.522-.049l.03.857a2.6,2.6,0,0,1-.9.127c-.924,0-1.466-.5-1.466-1.783V3.383H71.1V2.536h.763V1.6l1.145-.341V2.526H74.3v.857" transform="translate(-4.743 -0.188)"/>
            <path id="Fill-24" class="cls-2" d="M80.819,7.518H79.654V4.605c0-.916-.362-1.374-1.065-1.374A1.127,1.127,0,0,0,77.425,4.44V7.508H76.26V.075h1.165V3.134h.02a1.781,1.781,0,0,1,1.577-.828c1.115,0,1.8.838,1.8,2.172V7.518" transform="translate(-5.089 -0.075)"/>
            <path id="Fill-25" class="cls-2" d="M87.208,5.472H83.7a1.49,1.49,0,0,0,1.657,1.51,4.059,4.059,0,0,0,1.416-.244l.181.789a4.375,4.375,0,0,1-1.757.312,2.4,2.4,0,0,1-2.621-2.572A2.521,2.521,0,0,1,85.069,2.53a2.173,2.173,0,0,1,2.189,2.426A1.918,1.918,0,0,1,87.208,5.472Zm-1.065-.809c0-.789-.412-1.344-1.155-1.344a1.355,1.355,0,0,0-1.275,1.344Z" transform="translate(-5.513 -0.309)"/>
          </g>
        </g>
      </g>
    </g>
  </g>
</svg>
