<svg id="Group_1870" data-name="Group 1870" xmlns="http://www.w3.org/2000/svg" viewBox="0 0 139.488 45.805">
  <defs>
    <style>
      .cls-1 {
        fill: #fff;
      }

      .cls-2 {
        fill: #151515;
      }
    </style>
  </defs>
  <g id="available-on-the-app-store" transform="translate(0)">
    <g id="Artboard-1">
      <g id="App-Store">
        <path id="background" class="cls-1" d="M5.559,0H133.714a5.588,5.588,0,0,1,5.666,5.5V40.309a5.588,5.588,0,0,1-5.666,5.5H5.559a5.588,5.588,0,0,1-5.666-5.5V5.5A5.588,5.588,0,0,1,5.559,0Z" transform="translate(0.108)"/>
        <g id="icon" transform="translate(12.369 8.062)">
          <path id="Fill-2" class="cls-2" d="M18.16,14.892a5.9,5.9,0,0,1,2.89-4.947,6.331,6.331,0,0,0-4.9-2.574c-2.059-.211-4.061,1.2-5.109,1.2C9.973,8.57,8.348,7.4,6.61,7.425a6.541,6.541,0,0,0-5.487,3.252c-2.37,3.985-.6,9.848,1.672,13.073,1.143,1.576,2.465,3.344,4.212,3.28,1.7-.064,2.342-1.054,4.391-1.054s2.635,1.054,4.41,1.017c1.832-.027,2.975-1.585,4.08-3.179a12.749,12.749,0,0,0,1.86-3.683,5.743,5.743,0,0,1-3.589-5.24" transform="translate(0.002 -1.095)"/>
          <path id="Fill-3" class="cls-2" d="M16.319,4.159A5.7,5.7,0,0,0,17.689,0a6.14,6.14,0,0,0-3.938,1.979,5.47,5.47,0,0,0-1.407,4,5.1,5.1,0,0,0,3.976-1.823" transform="translate(-1.509)"/>
        </g>
        <g id="Group_3659" data-name="Group 3659">
          <path id="Fill-4" class="cls-2" d="M11.756,13.843H9.377l-1.3-3.976H3.54L2.3,13.843H-.011L4.475.312H7.252l4.5,13.531ZM7.686,8.2,6.506,4.673c-.123-.366-.359-1.209-.7-2.547H5.76C5.618,2.7,5.4,3.555,5.1,4.673L3.937,8.2Z" transform="translate(43.444 19.925)"/>
          <path id="Fill-5" class="cls-2" d="M25.191,9.476a5.4,5.4,0,0,1-1.4,3.93,4.132,4.132,0,0,1-3.1,1.283,3.132,3.132,0,0,1-2.871-1.383v5.121H15.587V7.918c0-1.044-.028-2.107-.085-3.206h1.964l.123,1.548h.038a3.761,3.761,0,0,1,3.39-1.75,3.775,3.775,0,0,1,2.965,1.365,5.205,5.205,0,0,1,1.209,3.6Zm-2.276.073A3.9,3.9,0,0,0,22.254,7.2a2.312,2.312,0,0,0-1.945-.962,2.418,2.418,0,0,0-1.5.531,2.443,2.443,0,0,0-.878,1.392,2.884,2.884,0,0,0-.1.66v1.631a2.577,2.577,0,0,0,.671,1.8,2.264,2.264,0,0,0,1.747.733,2.33,2.33,0,0,0,1.964-.944A4.048,4.048,0,0,0,22.915,9.549Z" transform="translate(41.54 19.299)"/>
          <path id="Fill-6" class="cls-2" d="M38.368,9.476a5.4,5.4,0,0,1-1.4,3.93,4.132,4.132,0,0,1-3.1,1.283A3.132,3.132,0,0,1,31,13.305v5.121H28.763V7.918c0-1.044-.028-2.107-.085-3.206h1.964l.123,1.548H30.8a4.039,4.039,0,0,1,6.356-.385A5.205,5.205,0,0,1,38.368,9.476Zm-2.276.073A3.9,3.9,0,0,0,35.431,7.2a2.312,2.312,0,0,0-1.945-.962,2.418,2.418,0,0,0-1.5.531,2.492,2.492,0,0,0-.878,1.392,2.884,2.884,0,0,0-.1.66v1.631a2.577,2.577,0,0,0,.671,1.8,2.264,2.264,0,0,0,1.747.733,2.318,2.318,0,0,0,1.964-.944A3.988,3.988,0,0,0,36.092,9.549Z" transform="translate(39.923 19.299)"/>
          <path id="Fill-7" class="cls-2" d="M53.262,10.017a3.573,3.573,0,0,1-1.237,2.812,5.6,5.6,0,0,1-3.8,1.182,6.806,6.806,0,0,1-3.608-.843l.519-1.8a6.422,6.422,0,0,0,3.23.843,3.108,3.108,0,0,0,1.964-.55,1.775,1.775,0,0,0,.708-1.475A1.879,1.879,0,0,0,50.467,8.8,5.437,5.437,0,0,0,48.54,7.754c-2.465-.889-3.683-2.18-3.683-3.875a3.4,3.4,0,0,1,1.294-2.73A5.237,5.237,0,0,1,49.579.086a6.914,6.914,0,0,1,3.164.641l-.567,1.759a5.713,5.713,0,0,0-2.682-.623,2.84,2.84,0,0,0-1.851.559,1.6,1.6,0,0,0-.557,1.228,1.626,1.626,0,0,0,.642,1.319,7.277,7.277,0,0,0,2.03,1.044A6.83,6.83,0,0,1,52.4,7.662a3.366,3.366,0,0,1,.859,2.354" transform="translate(37.966 19.958)"/>
          <path id="Fill-8" class="cls-2" d="M62.055,5.953H59.59v4.736c0,1.2.434,1.8,1.3,1.8a4.268,4.268,0,0,0,.992-.1l.066,1.649a5.331,5.331,0,0,1-1.738.238,2.718,2.718,0,0,1-2.068-.788,3.744,3.744,0,0,1-.746-2.629V5.944H55.935V4.322H57.4V2.536l2.191-.641V4.322h2.465V5.953" transform="translate(36.578 19.689)"/>
          <path id="Fill-9" class="cls-2" d="M74.171,9.514a5.261,5.261,0,0,1-1.322,3.692,4.805,4.805,0,0,1-3.683,1.484,4.6,4.6,0,0,1-3.532-1.42,5.065,5.065,0,0,1-1.313-3.591,5.226,5.226,0,0,1,1.35-3.71,4.786,4.786,0,0,1,3.655-1.447,4.666,4.666,0,0,1,3.56,1.429,5,5,0,0,1,1.284,3.564Zm-2.314.046a4.27,4.27,0,0,0-.595-2.3,2.353,2.353,0,0,0-4.061,0,4.285,4.285,0,0,0-.595,2.345,4.248,4.248,0,0,0,.595,2.3,2.328,2.328,0,0,0,4.042-.018A4.336,4.336,0,0,0,71.858,9.56Z" transform="translate(35.549 19.297)"/>
          <path id="Fill-10" class="cls-2" d="M83.084,6.618a4.265,4.265,0,0,0-.708-.055,2.132,2.132,0,0,0-1.823.861A3.2,3.2,0,0,0,80,9.348v5.121H77.758V7.781c0-1.127-.019-2.153-.066-3.069h1.945l.085,1.869h.066A3.328,3.328,0,0,1,80.9,5.033a2.775,2.775,0,0,1,1.615-.522,4.847,4.847,0,0,1,.557.037l.009,2.07" transform="translate(33.908 19.299)"/>
          <path id="Fill-11" class="cls-2" d="M93.977,9.123a4.811,4.811,0,0,1-.085.98H87.186a2.79,2.79,0,0,0,.973,2.208,3.417,3.417,0,0,0,2.191.678,7.732,7.732,0,0,0,2.71-.458l.349,1.5a8.62,8.62,0,0,1-3.372.6A4.969,4.969,0,0,1,86.365,13.3a4.853,4.853,0,0,1-1.332-3.582A5.489,5.489,0,0,1,86.28,6.045a4.333,4.333,0,0,1,3.513-1.567,3.771,3.771,0,0,1,3.286,1.567,5.183,5.183,0,0,1,.9,3.078Zm-2.134-.559A2.853,2.853,0,0,0,91.408,6.9a1.966,1.966,0,0,0-1.775-.907,2.144,2.144,0,0,0-1.775.879A3.2,3.2,0,0,0,87.2,8.555l4.646.009Z" transform="translate(33.007 19.304)"/>
        </g>
        <g id="Group_3660" data-name="Group 3660">
          <path id="Fill-12" class="cls-2" d="M5.757,7.135H4.586L3.944,5.184H1.715L1.1,7.135H-.032L2.168.484h1.36ZM3.745,4.36,3.169,2.619c-.057-.174-.17-.6-.349-1.255H2.8c-.076.284-.17.7-.331,1.255L1.9,4.36Z" transform="translate(44.296 8.264)"/>
          <path id="Fill-13" class="cls-2" d="M12.189,2.659l-1.87,4.8H9.252l-1.813-4.8h1.18L9.46,5.2c.142.421.264.824.359,1.209h.028c.085-.348.208-.751.359-1.209l.831-2.538h1.152" transform="translate(43.379 7.94)"/>
          <path id="Fill-14" class="cls-2" d="M16.967,7.445l-.085-.55h-.028a1.72,1.72,0,0,1-1.445.66A1.415,1.415,0,0,1,13.9,6.144c0-1.182,1.058-1.8,2.89-1.8V4.257c0-.632-.349-.944-1.029-.944a2.359,2.359,0,0,0-1.294.357l-.227-.7a3.252,3.252,0,0,1,1.7-.412A1.739,1.739,0,0,1,17.883,4.55V6.318a6.2,6.2,0,0,0,.076,1.145l-.992-.018Zm-.151-2.391c-1.218,0-1.832.284-1.832.971a.69.69,0,0,0,.756.751,1.038,1.038,0,0,0,1.077-.98Z" transform="translate(42.587 7.955)"/>
          <path id="Fill-15" class="cls-2" d="M21.138,1.51A.637.637,0,1,1,21.156.237a.631.631,0,0,1,.671.632A.634.634,0,0,1,21.138,1.51Zm-.529.788h1.1V7.089h-1.1Z" transform="translate(41.778 8.301)"/>
          <path id="Fill-16" class="cls-2" d="M24.1.075h1.1v6.99H24.1Z" transform="translate(41.334 8.325)"/>
          <path id="Fill-17" class="cls-2" d="M30.24,7.443l-.085-.55h-.028a1.72,1.72,0,0,1-1.445.66,1.415,1.415,0,0,1-1.511-1.411c0-1.182,1.058-1.8,2.89-1.8V4.255c0-.632-.349-.944-1.029-.944a2.359,2.359,0,0,0-1.294.357l-.227-.705a3.252,3.252,0,0,1,1.7-.412,1.739,1.739,0,0,1,1.945,1.988V6.307a7.35,7.35,0,0,0,.066,1.145H30.24V7.443Zm-.151-2.391c-1.218,0-1.832.284-1.832.971a.69.69,0,0,0,.756.751,1.038,1.038,0,0,0,1.077-.98Z" transform="translate(40.958 7.956)"/>
          <path id="Fill-18" class="cls-2" d="M36.434,7.184a1.693,1.693,0,0,1-1.558-.852h-.019l-.066.742h-.935c.028-.385.038-.815.038-1.292V.075H35v2.9h.019a1.713,1.713,0,0,1,1.577-.8A2.149,2.149,0,0,1,38.616,4.61,2.332,2.332,0,0,1,36.434,7.184Zm-.227-4.168A1.24,1.24,0,0,0,35,4.289v.843a1.189,1.189,0,0,0,1.19,1.2c.822,0,1.313-.65,1.313-1.686C37.5,3.676,36.992,3.016,36.208,3.016Z" transform="translate(40.137 8.325)"/>
          <path id="Fill-19" class="cls-2" d="M41.133.075h1.1v6.99h-1.1Z" transform="translate(39.244 8.325)"/>
          <path id="Fill-20" class="cls-2" d="M48.587,5.3h-3.3a1.4,1.4,0,0,0,1.558,1.42,3.817,3.817,0,0,0,1.332-.229l.17.742a4.114,4.114,0,0,1-1.653.293A2.26,2.26,0,0,1,44.234,5.1,2.37,2.37,0,0,1,46.576,2.53a2.044,2.044,0,0,1,2.059,2.281,1.8,1.8,0,0,1-.047.486Zm-1-.76c0-.742-.387-1.264-1.086-1.264a1.281,1.281,0,0,0-1.2,1.264Z" transform="translate(38.864 7.96)"/>
          <path id="Fill-21" class="cls-2" d="M56.453,7.553a2.311,2.311,0,0,1-2.38-2.464,2.367,2.367,0,0,1,2.465-2.538,2.294,2.294,0,0,1,2.38,2.455A2.385,2.385,0,0,1,56.453,7.553ZM56.5,3.33c-.793,0-1.3.724-1.3,1.722s.519,1.7,1.294,1.7,1.294-.77,1.294-1.731S57.274,3.33,56.5,3.33Z" transform="translate(37.656 7.956)"/>
          <path id="Fill-22" class="cls-2" d="M65.719,7.442h-1.1V4.684c0-.852-.34-1.273-1-1.273a1.116,1.116,0,0,0-1.1,1.173V7.433h-1.1V4.015c0-.421-.009-.879-.038-1.374h.963l.047.742h.028A1.79,1.79,0,0,1,64,2.541c1.039,0,1.719.77,1.719,2.025V7.442" transform="translate(36.758 7.958)"/>
          <path id="Fill-23" class="cls-2" d="M74.1,3.257H72.888V5.584c0,.6.217.889.642.889a2.475,2.475,0,0,0,.491-.046l.028.806a2.448,2.448,0,0,1-.85.119c-.869,0-1.379-.467-1.379-1.676V3.257H71.1v-.8h.718V1.58L72.9,1.26V2.45h1.209v.806" transform="translate(35.566 8.149)"/>
          <path id="Fill-24" class="cls-2" d="M80.547,7.074h-1.1V4.335c0-.861-.34-1.292-1-1.292a1.06,1.06,0,0,0-1.1,1.136V7.065h-1.1V.075h1.1V2.952h.019a1.674,1.674,0,0,1,1.483-.779c1.048,0,1.69.788,1.69,2.043V7.074" transform="translate(34.934 8.325)"/>
          <path id="Fill-25" class="cls-2" d="M86.933,5.3h-3.3a1.4,1.4,0,0,0,1.558,1.42,3.817,3.817,0,0,0,1.332-.229l.17.742a4.114,4.114,0,0,1-1.653.293A2.26,2.26,0,0,1,82.579,5.1,2.371,2.371,0,0,1,84.921,2.53,2.044,2.044,0,0,1,86.98,4.811,1.8,1.8,0,0,1,86.933,5.3Zm-1-.76c0-.742-.387-1.264-1.086-1.264a1.274,1.274,0,0,0-1.2,1.264Z" transform="translate(34.158 7.96)"/>
        </g>
      </g>
    </g>
  </g>
</svg>
