<svg id="facebook-logo" xmlns="http://www.w3.org/2000/svg" viewBox="0 0 7.514 13.898">
  <defs>
    <style>
      .cls-1 {
        fill: #e4e4e4;
      }
    </style>
  </defs>
  <path id="Path_33" data-name="Path 33" class="cls-1" d="M29.308,0l-1.8,0a3.165,3.165,0,0,0-3.333,3.42V5H22.36a.283.283,0,0,0-.283.284V7.565a.283.283,0,0,0,.283.283h1.812v5.765a.283.283,0,0,0,.283.283H26.82a.283.283,0,0,0,.283-.283V7.849h2.119a.283.283,0,0,0,.283-.283V5.281A.284.284,0,0,0,29.223,5H27.1V3.66c0-.643.153-.969.99-.969h1.214a.283.283,0,0,0,.283-.283V.286A.283.283,0,0,0,29.308,0Z" transform="translate(-22.077)"/>
</svg>
