<svg id="Group_1871" data-name="Group 1871" xmlns="http://www.w3.org/2000/svg" viewBox="0 0 151.032 48.708">
  <defs>
    <style>
      .cls-1 {
        fill: #151515;
        opacity: 0.95;
      }

      .cls-2 {
        fill: #fff;
      }
    </style>
  </defs>
  <g id="available-on-the-app-store" transform="translate(0)">
    <g id="Artboard-1" transform="translate(0)">
      <g id="App-Store">
        <path id="background" class="cls-1" d="M6.028,0H144.789a6,6,0,0,1,6.135,5.845V42.863a6,6,0,0,1-6.135,5.845H6.028A6,6,0,0,1-.108,42.863V5.845A6,6,0,0,1,6.028,0Z" transform="translate(0.108)"/>
        <path id="Path_1621" data-name="Path 1621" class="cls-2" d="M80.014,169.171a.918.918,0,0,0-.014.166v22.135a.489.489,0,0,0,.309.5l12.154-11.236L80.015,169.171Zm.449-.473a1,1,0,0,1,.658.128l10.11,5.434,5.211,2.8-3.5,3.235-12.48-11.6Zm15.359,15.163-2.583,1.388-2.008,1.079-9.413,5.06,11.111-10.216,2.894,2.69Zm.607-.326.042-.023s4.447-2.39,5.038-2.707.534-.753.035-1c-.389-.195-3.255-1.742-4.5-2.415l-3.636,3.343Z" transform="translate(-66.197 -153.935)"/>
        <g id="Group_1724" data-name="Group 1724" transform="translate(45.662 8.4)">
          <path id="Path_1622" data-name="Path 1622" class="cls-2" d="M477.038,121.232l-.95.875c-.22.118-.438.254-.656.352a4.7,4.7,0,0,1-1.928.366,4.331,4.331,0,0,1-2.645-.757,4.968,4.968,0,0,1-2.027-4.088,4.458,4.458,0,0,1,4.553-4.481,3.94,3.94,0,0,1,2.046.543,3.24,3.24,0,0,1,1.392,1.919l-4.671,1.842-1.53.116c.5,2.465,2.2,3.9,4.092,3.9a5,5,0,0,0,2.286-.61s.129-.066.037.024Zm-2.854-4.945c.375-.135.57-.252.57-.524a1.951,1.951,0,0,0-1.947-1.68,2.413,2.413,0,0,0-2.258,2.717c0,.329.039.68.059,1.03Zm-6.894,4.84c0,.751.137.868.788.927.339.039.677.056,1.012.1l-.733.426h-3.49c.458-.58.536-.638.536-1.024v-.432l-.008-11.5h-1.541l1.484-.7h2.832a1.337,1.337,0,0,0-.876,1.236l0,10.97Zm-5.415-6.678a3.116,3.116,0,0,1-.257,5.356,1.365,1.365,0,0,0-.554.946,1.062,1.062,0,0,0,.514.833l.714.539a3.364,3.364,0,0,1,1.66,2.71c0,1.819-1.8,3.654-5.2,3.654-2.865,0-4.25-1.335-4.25-2.766a2.769,2.769,0,0,1,1.524-2.358,8.673,8.673,0,0,1,3.776-.888,2.02,2.02,0,0,1-.595-1.318,1.718,1.718,0,0,1,.2-.754c-.216.02-.434.041-.632.041a3.1,3.1,0,0,1-3.282-3.038,3.443,3.443,0,0,1,1.267-2.592,5.482,5.482,0,0,1,3.54-1.064h4.075l-1.267.7h-1.228Zm-1.391,8.564a3.119,3.119,0,0,0-.459-.021,8,8,0,0,0-2.092.315,2.225,2.225,0,0,0-1.717,2.029c0,1.4,1.377,2.4,3.507,2.4,1.914,0,2.93-.906,2.93-2.126,0-1-.657-1.534-2.17-2.6Zm.559-3.725a1.919,1.919,0,0,0,.495-1.409c0-1.387-.844-3.546-2.481-3.546a1.849,1.849,0,0,0-1.377.639,2.189,2.189,0,0,0-.433,1.424c0,1.291.769,3.433,2.46,3.433a2.035,2.035,0,0,0,1.336-.54Zm-11.492,3.537a4.634,4.634,0,0,1-4.835-4.593,4.873,4.873,0,0,1,5.132-4.732,4.6,4.6,0,0,1,4.738,4.595A4.8,4.8,0,0,1,449.55,122.825Zm2.463-1.576a3.462,3.462,0,0,0,.6-2.166c0-1.72-.834-5-3.3-5a2.8,2.8,0,0,0-1.792.663,2.924,2.924,0,0,0-.915,2.385c0,1.93.971,5.112,3.381,5.112a2.559,2.559,0,0,0,2.029-.994Zm-13.02,1.576a4.632,4.632,0,0,1-4.835-4.593,4.874,4.874,0,0,1,5.134-4.732,4.594,4.594,0,0,1,4.736,4.595A4.8,4.8,0,0,1,438.994,122.825Zm2.464-1.576a3.481,3.481,0,0,0,.6-2.166c0-1.72-.837-5-3.3-5a2.793,2.793,0,0,0-1.79.663,2.92,2.92,0,0,0-.916,2.385c0,1.93.976,5.112,3.383,5.112a2.562,2.562,0,0,0,2.028-.994Zm-8.606,1-2.668.6a19.957,19.957,0,0,1-3.08.313c-5.146,0-7.107-3.7-7.107-6.593,0-3.535,2.778-6.812,7.536-6.812a11.153,11.153,0,0,1,2.857.379,7.257,7.257,0,0,1,2.461,1.133L431.3,112.7l-.653.143.466-.725a5.374,5.374,0,0,0-3.992-1.712,5.084,5.084,0,0,0-5.164,5.374,6.51,6.51,0,0,0,6.6,6.647,5.67,5.67,0,0,0,2.368-.453V119.04l-2.817.148,1.493-.783h3.954l-.484.454a.416.416,0,0,0-.185.29c-.02.166-.038.693-.038.879v2.221Zm49.943-.928v4.917h-1V113.726h1v1.425a4.025,4.025,0,0,1,3.238-1.651c2.491,0,4.168,1.837,4.168,4.745,0,2.889-1.677,4.764-4.168,4.764a4.014,4.014,0,0,1-3.238-1.688Zm6.376-3c0-2.215-1.179-3.9-3.271-3.9a4.01,4.01,0,0,0-3.08,1.87v4.048a4.042,4.042,0,0,0,3.08,1.909C487.992,122.242,489.171,120.538,489.171,118.32Zm2.4-8.067h1.03v12.572h-1.03Zm12.227,15.12a2.423,2.423,0,0,0,.814.151c.614,0,1.042-.244,1.426-1.107l.733-1.614-3.957-9.135h1.12l3.394,7.916,3.361-7.916h1.136L507,124.719a2.463,2.463,0,0,1-2.371,1.686,4.077,4.077,0,0,1-1-.131l.172-.9Zm-2.834-2.56c-.067-.316-.118-.594-.156-.827a5.4,5.4,0,0,1-.048-.71,3.97,3.97,0,0,1-1.463,1.229,4.12,4.12,0,0,1-2.04.486,3.365,3.365,0,0,1-2.293-.713,2.451,2.451,0,0,1-.817-1.941,2.285,2.285,0,0,1,1.185-1.986,5.573,5.573,0,0,1,3.072-.762h2.356v-1.132a1.874,1.874,0,0,0-.685-1.536,2.987,2.987,0,0,0-1.934-.56,3.125,3.125,0,0,0-1.85.507,1.532,1.532,0,0,0-.7,1.276h-1.034l-.021-.049a2.093,2.093,0,0,1,.975-1.813,4.329,4.329,0,0,1,2.688-.782,4.274,4.274,0,0,1,2.664.772,2.6,2.6,0,0,1,1.008,2.207v4.493a6.939,6.939,0,0,0,.057.938,5.846,5.846,0,0,0,.2.9h-1.164Zm-3.586-.654a3.858,3.858,0,0,0,2.1-.558,2.843,2.843,0,0,0,1.274-1.431v-1.758h-2.365a3.943,3.943,0,0,0-2.24.59,1.7,1.7,0,0,0-.888,1.423,1.559,1.559,0,0,0,.565,1.256,2.319,2.319,0,0,0,1.55.478ZM420,101.786a3.329,3.329,0,0,1,5.848-1.768l-.9.47a2.109,2.109,0,0,0-1.637-.76,2.061,2.061,0,1,0,0,4.116,2.4,2.4,0,0,0,1.5-.512v-.88h-1.892v-.88h2.99V103.7a3.578,3.578,0,0,1-2.593,1.042A3.048,3.048,0,0,1,420,101.786Zm7.336,2.868V98.926h4.384v.885h-3.261v1.477h3.194v.885h-3.194v1.6h3.261v.885Zm7.365,0V99.811h-1.908v-.885h4.921v.885h-1.908v4.843Zm6.95-5.729h1.074v5.729h-1.074Zm4.145,5.729V99.811h-1.908v-.885h4.921v.885H446.9v4.843Zm6.681-2.864a3.282,3.282,0,1,1,3.266,2.951A3.009,3.009,0,0,1,452.475,101.79Zm5.368-.044a2.1,2.1,0,1,0-2.1,2.04A1.98,1.98,0,0,0,457.843,101.747Zm6.806,2.908-3.286-4.1v4.1h-1.1V98.926h1.133l3.219,3.968V98.926h1.1v5.729Z" transform="translate(-419.998 -98.839)"/>
        </g>
      </g>
    </g>
  </g>
</svg>
