<svg xmlns="http://www.w3.org/2000/svg" viewBox="0 0 126.639 27.052">
  <defs>
    <style>
      .cls-1 {
        opacity: 0.7;
      }

      .cls-2 {
        fill: #b2b2b2;
      }
    </style>
  </defs>
  <g id="microsoft_grey" class="cls-1" transform="translate(0)">
    <g id="Group_1783" data-name="Group 1783" transform="translate(35.146 4.215)">
      <path id="Path_1667" data-name="Path 1667" class="cls-2" d="M177.162,34.706l-.755,2.139h-.063a15.188,15.188,0,0,0-.734-2.1l-4.047-10.171H167.6v16.21h2.621v-10c0-.629,0-1.342-.021-2.223-.021-.44-.063-.776-.084-1.028h.063a9.8,9.8,0,0,0,.377,1.384l4.865,11.827h1.845l4.823-11.932a12.7,12.7,0,0,0,.315-1.279h.063c-.063,1.2-.1,2.265-.126,2.915V40.725h2.789V24.536h-3.817Zm10.611-5.6H190.5V40.725h-2.726Zm1.384-4.907a1.633,1.633,0,0,0-1.153.461,1.546,1.546,0,0,0,0,2.244,1.616,1.616,0,0,0,1.153.44,1.672,1.672,0,0,0,1.153-.44,1.475,1.475,0,0,0,.482-1.111,1.554,1.554,0,0,0-.482-1.132,1.53,1.53,0,0,0-1.153-.461M200.167,29a7.6,7.6,0,0,0-1.531-.168,6.579,6.579,0,0,0-3.313.818,5.477,5.477,0,0,0-2.181,2.244,7.132,7.132,0,0,0-.755,3.355,6.224,6.224,0,0,0,.734,3,5.026,5.026,0,0,0,2.055,2.076,6.05,6.05,0,0,0,3,.734,6.591,6.591,0,0,0,3.292-.776l.021-.021V37.747l-.1.084a4.686,4.686,0,0,1-1.321.692,4.041,4.041,0,0,1-1.3.252,3.216,3.216,0,0,1-2.558-1.007,3.868,3.868,0,0,1-.944-2.747,3.964,3.964,0,0,1,.965-2.831,3.366,3.366,0,0,1,2.558-1.049,4.462,4.462,0,0,1,2.6.881l.1.084V29.443l-.021-.021a6.323,6.323,0,0,0-1.3-.419m9-.084a2.877,2.877,0,0,0-1.845.65,3.912,3.912,0,0,0-1.049,1.573h-.021V29.107h-2.726V40.725h2.726V34.79a4,4,0,0,1,.671-2.454,2.1,2.1,0,0,1,1.762-.944,6.725,6.725,0,0,1,.818.1,2.152,2.152,0,0,1,.65.273l.1.084V29.128l-.063-.021a2.072,2.072,0,0,0-1.028-.189m7.423-.063a6.012,6.012,0,0,0-4.509,1.678,6.246,6.246,0,0,0-1.615,4.572,5.978,5.978,0,0,0,1.594,4.341,6.548,6.548,0,0,0,8.682-.1,6.225,6.225,0,0,0,1.615-4.509,6.068,6.068,0,0,0-1.531-4.383,5.519,5.519,0,0,0-4.236-1.594m2.181,8.933a2.748,2.748,0,0,1-2.286.965,2.864,2.864,0,0,1-2.349-1.007,4.142,4.142,0,0,1-.839-2.789,4.4,4.4,0,0,1,.839-2.852,2.884,2.884,0,0,1,2.328-1.007,2.788,2.788,0,0,1,2.265.965,4.3,4.3,0,0,1,.839,2.831,4.851,4.851,0,0,1-.8,2.894m9.667-3.859a6.531,6.531,0,0,1-1.657-.86,1.191,1.191,0,0,1-.315-.881.974.974,0,0,1,.44-.839,2.02,2.02,0,0,1,1.2-.315,5.428,5.428,0,0,1,1.4.21,3.616,3.616,0,0,1,1.216.566l.1.084V29.338l-.063-.021a7.568,7.568,0,0,0-1.237-.356,8.406,8.406,0,0,0-1.342-.126,4.859,4.859,0,0,0-3.208,1.007,3.1,3.1,0,0,0-1.237,2.558,3.329,3.329,0,0,0,.273,1.426,3.179,3.179,0,0,0,.839,1.09,7.309,7.309,0,0,0,1.678.944c.629.273,1.111.482,1.405.65a2.847,2.847,0,0,1,.629.5,1.192,1.192,0,0,1,.168.65c0,.776-.587,1.153-1.782,1.153a4.706,4.706,0,0,1-1.51-.273,5.834,5.834,0,0,1-1.531-.776l-.1-.084v2.663l.063.021a8.133,8.133,0,0,0,1.468.461,9.363,9.363,0,0,0,1.573.189,5.107,5.107,0,0,0,3.376-1.007,3.211,3.211,0,0,0,1.279-2.642,2.94,2.94,0,0,0-.671-1.992,8.5,8.5,0,0,0-2.454-1.447m10.317-5.075a6.012,6.012,0,0,0-4.509,1.678,6.334,6.334,0,0,0-1.615,4.572,5.978,5.978,0,0,0,1.594,4.341,6.548,6.548,0,0,0,8.682-.1,6.225,6.225,0,0,0,1.615-4.509,6.068,6.068,0,0,0-1.531-4.383,5.519,5.519,0,0,0-4.236-1.594m2.16,8.933a2.749,2.749,0,0,1-2.286.965,2.837,2.837,0,0,1-2.349-1.007,4.142,4.142,0,0,1-.839-2.789,4.4,4.4,0,0,1,.839-2.852,2.884,2.884,0,0,1,2.328-1.007,2.817,2.817,0,0,1,2.265.965,4.3,4.3,0,0,1,.839,2.831,4.575,4.575,0,0,1-.8,2.894" transform="translate(-167.6 -23.34)"/>
      <path id="Path_1668" data-name="Path 1668" class="cls-2" d="M550.16,28.111V25.867h-2.747V22.428l-.084.021-2.6.776-.063.021v2.621h-4.11V24.4a2.3,2.3,0,0,1,.461-1.531,1.628,1.628,0,0,1,1.279-.5,3.059,3.059,0,0,1,1.216.273l.1.063v-2.37l-.063-.021a5.244,5.244,0,0,0-3.712.294,3.638,3.638,0,0,0-1.489,1.489,4.291,4.291,0,0,0-.545,2.16v1.615H535.9V28.09h1.908v9.395h2.747V28.111h4.11v5.977c0,2.454,1.153,3.691,3.46,3.691a7.188,7.188,0,0,0,1.153-.126,3.774,3.774,0,0,0,.86-.273l.021-.021V35.115l-.1.084a1.772,1.772,0,0,1-.566.252,1.92,1.92,0,0,1-.545.084,1.453,1.453,0,0,1-1.2-.44,2.271,2.271,0,0,1-.378-1.489V28.111h2.789Z" transform="translate(-458.667 -20.1)"/>
    </g>
    <path id="Path_1669" data-name="Path 1669" class="cls-2" d="M0,0H12.855V12.855H0Z"/>
    <path id="Path_1670" data-name="Path 1670" class="cls-2" d="M67.7,0H80.555V12.855H67.7Z" transform="translate(-53.503)"/>
    <path id="Path_1671" data-name="Path 1671" class="cls-2" d="M0,67.7H12.855V80.555H0Z" transform="translate(0 -53.503)"/>
    <path id="Path_1672" data-name="Path 1672" class="cls-2" d="M67.7,67.7H80.555V80.555H67.7Z" transform="translate(-53.503 -53.503)"/>
  </g>
</svg>
