<svg xmlns="http://www.w3.org/2000/svg" viewBox="0 0 100.096 27.052">
  <defs>
    <style>
      .cls-1 {
        opacity: 0.2;
      }
    </style>
  </defs>
  <path id="Netflix_2015_logo" class="cls-1" d="M13.764,25.308c-1.506.264-3.038.344-4.623.555L4.306,11.7V26.47c-1.506.158-2.879.37-4.306.581V0H4.016L9.51,15.349V0h4.253V25.308Zm8.322-15.4c1.638,0,4.148-.079,5.653-.079v4.227c-1.876,0-4.068,0-5.653.079v6.287c2.483-.158,4.967-.37,7.476-.449V24.04l-11.7.925V0h11.7V4.227H22.085v5.68ZM45.28,4.227H40.894V23.67c-1.427,0-2.853,0-4.227.053V4.227H32.283V0h13V4.227Zm6.869,5.389h5.786v4.227H52.148v9.59H48V0H59.809V4.227H52.148V9.616Zm14.53,10.118c2.4.053,4.834.238,7.186.37v4.174c-3.778-.238-7.555-.475-11.412-.555V0h4.227V19.734ZM77.43,24.568c1.347.079,2.774.159,4.148.317V0H77.43ZM100.1,0,94.733,12.865,100.1,27.052c-1.585-.211-3.17-.5-4.755-.766L92.3,18.466l-3.091,7.186c-1.533-.264-3.012-.344-4.544-.555l5.442-12.39L85.2,0H89.74l2.774,7.106L95.473,0H100.1Z"/>
</svg>
