<svg id="twitter-black-shape" xmlns="http://www.w3.org/2000/svg" viewBox="0 0 15.732 13.322">
  <defs>
    <style>
      .cls-1 {
        fill: #e4e4e4;
      }
    </style>
  </defs>
  <g id="Group_41" data-name="Group 41" transform="translate(0 0)">
    <path id="Path_34" data-name="Path 34" class="cls-1" d="M15.271,43.53q-.116.034-.233.063c-.474.12-.518-.038-.174-.387a3.163,3.163,0,0,0,.407-.509c.264-.411.035-.591-.415-.4q-.241.1-.489.186a2.045,2.045,0,0,1-1.534-.341,3.395,3.395,0,0,0-4.156.488,3.241,3.241,0,0,0-.984,2.378,3.55,3.55,0,0,0,.022.387c.024.213-.335.367-.819.3a9.3,9.3,0,0,1-2.985-.952,9.573,9.573,0,0,1-2.476-1.821c-.342-.35-.8-.32-.932.152a3.368,3.368,0,0,0-.115.883,3.275,3.275,0,0,0,.406,1.6,3.442,3.442,0,0,0,.473.666c.3.334.258.528-.166.409a5.458,5.458,0,0,1-.734-.284v.021a3.248,3.248,0,0,0,.765,2.139,3.346,3.346,0,0,0,1.095.876c.438.217.642.338.4.37a3.474,3.474,0,0,1-.446.029q-.152,0-.318-.014c-.175-.015-.207.35.059.761a3.366,3.366,0,0,0,.811.861,3.289,3.289,0,0,0,1.083.544c.47.134.565.378.145.63A6.569,6.569,0,0,1,.513,53.5q-.213,0-.406-.009c-.224-.011-.074.187.359.414a9.335,9.335,0,0,0,4.4,1.063A9.829,9.829,0,0,0,8.225,54.4a8.55,8.55,0,0,0,2.685-1.52,10.168,10.168,0,0,0,1.92-2.191,9.772,9.772,0,0,0,1.2-2.586,9.557,9.557,0,0,0,.4-2.7c0-.081,0-.154,0-.219,0-.121.317-.448.674-.782q.241-.227.461-.476C15.884,43.562,15.741,43.393,15.271,43.53Z" transform="translate(-0.003 -41.648)"/>
  </g>
</svg>
