<svg id="Group_3720" data-name="Group 3720" xmlns="http://www.w3.org/2000/svg" viewBox="0 0 32.183 46.5">
  <defs>
    <style>
      .cls-1 {
        fill: #dd8027;
      }

      .cls-2 {
        fill: #292e1e;
        opacity: 0.04;
      }
    </style>
  </defs>
  <path id="Path_1400" data-name="Path 1400" class="cls-1" d="M299.361,2.691s1.235-5.765,5.87.992c0,0,7.457,8.2,5.258,18.507a28.553,28.553,0,0,1-2.215,6.395A28.949,28.949,0,0,1,301.5,37.5l-6.033,5.516s-6.395,4.217-5.038-1.115c0,0,.066-2.209,1.134-2.649,0,0,1.974-1.194.7-2.922,0,0-.641-1.258,1.175-2.373a1.752,1.752,0,0,0,.58-2.567,2.387,2.387,0,0,1,1.372-2.57s1.386-.2.58-2.566c0,0-.167-1.5.981-1.78,0,0,1.663-.246.186-2.17,0,0-.879-1.336.9-2.333,0,0,1.148-.283-.133-2.405,0,0-.758-.9.9-1.938,0,0,.91-.36-.053-2.248,0,0-.843-1.849.541-2.448,0,0,1.026-.716.263-2.407C299.553,8.526,298.578,4.272,299.361,2.691Z" transform="translate(-278.712 -0.399)"/>
  <path id="Path_1401" data-name="Path 1401" class="cls-1" d="M17.761,19.594s1.251-3.005-1.36-2.28-7.62,4.736-7.62,4.736S.958,26.2,0,38.743c0,0,.153,12.777,3.908,18.2l3.275,4.477s1.47.741,1.892-1.746l1.123-4.62a1.942,1.942,0,0,1,1.182-1.19s1.028-.321-.092-2.129c0,0-.323-1.023,1.061-1.621a1.3,1.3,0,0,0,.508-.3,2.385,2.385,0,0,0,.069-2.662,11.155,11.155,0,0,1-.038-2.294,11.681,11.681,0,0,1,1.9-5.369s5.337-9.022,3.132-13.544A9.136,9.136,0,0,1,17.761,19.594Z" transform="translate(0 -16.537)"/>
  <path id="Path_1402" data-name="Path 1402" class="cls-2" d="M328.543,151.388c.006.07.088,1.074-.227,1.182-.252.085-.72-.417-.939-.938-.3-.72-.047-1.274-.43-1.554-.182-.133-.257-.022-.562-.185a1.207,1.207,0,0,1-.659-.845c-.024-.207.006-.582.23-.709.358-.2.99.358,1.218.559A4.527,4.527,0,0,1,328.543,151.388Z" transform="translate(-316.216 -141.301)"/>
  <path id="Path_1403" data-name="Path 1403" class="cls-2" d="M299.693,218.158a1.2,1.2,0,0,1,.005.946c-.121.216-.3.266-.278.378.041.248.91.123,1.077.513a.492.492,0,0,1-.184.567c-.118.066-.317.065-1.218-.559-1.053-.73-1.136-.975-1.545-.981a1.83,1.83,0,0,1-.749-.09c-.134-.052-.36-.138-.375-.281-.024-.217.466-.3.51-.615.03-.212-.152-.417-.283-.564-.234-.266-.417-.268-.468-.469-.043-.162.019-.378.138-.426.17-.071.34.242.562.186a.46.46,0,0,0,.278-.378c.054-.384-.4-.588-.332-.894a.458.458,0,0,1,.419-.331c.4.023.3.946.99,1.739C298.849,217.6,299.446,217.473,299.693,218.158Z" transform="translate(-288.051 -205)"/>
  <path id="Path_1404" data-name="Path 1404" class="cls-2" d="M264.883,308.714c.153-.128.5.158.609.044.079-.084-.009-.337-.143-.518-.25-.338-.526-.244-.89-.608-.161-.16-.114-.186-.328-.422a3.714,3.714,0,0,0-.609-.516c-.972-.722-1.134-.788-1.311-.747a.572.572,0,0,1-.328.047c-.17-.047-.187-.189-.375-.281-.171-.083-.41-.091-.468,0-.076.125.225.358.143.518-.067.133-.315.062-.372.189-.047.105.06.28.187.376.185.138.375.084.749.09a2.146,2.146,0,0,1,.749.09c.223.091.27.226.848,1.222a12.145,12.145,0,0,0,.753,1.033.648.648,0,0,0,.375.281.4.4,0,0,0,.328-.047C264.987,309.291,264.717,308.851,264.883,308.714Z" transform="translate(-254.336 -291.211)"/>
  <path id="Path_1405" data-name="Path 1405" class="cls-2" d="M244.538,394.573a.686.686,0,0,0-.515-.327c-.226-.022-.351.091-.468,0a.318.318,0,0,1-.094-.189c-.054-.168-.2-.269-1.03-.655-.455-.21-.543-.241-.656-.374-.094-.111-.172-.253-.234-.237s-.011.156-.094.284-.291.173-.7.24c-.1.017-.328.047-.328.047h0s.065.142.094.189c.132.21.547.026.7.232a.425.425,0,0,1,.047.331c-.029.126-.1.172-.094.284.008.084.054.094.094.189.073.169-.023.259,0,.473.008.063.035.292.187.376a.462.462,0,0,0,.513-.144,1.214,1.214,0,0,0,.184-.568c.012-.078.016-.133.047-.142.055-.017.131.136.328.422a3.053,3.053,0,0,0,.328.423c.162.167.242.25.375.281a.593.593,0,0,0,.513-.145c.214-.2.135-.446.324-.52.086-.034.134.006.328-.047.149-.043.178-.083.187-.095C244.662,394.79,244.553,394.6,244.538,394.573Z" transform="translate(-234.911 -374.235)"/>
  <path id="Path_1406" data-name="Path 1406" class="cls-2" d="M225,483.935a.363.363,0,0,0,.094-.284.338.338,0,0,0-.234-.234c-.163-.047-.216.076-.513.144-.209.047-.312.016-.656.1-.1.024-.178.047-.187.094s.054.089.234.237c.218.176.237.2.234.236-.008.107-.284.17-.372.189-.225.051-.358.024-.656.1-.119.029-.166.051-.187.095-.05.107.08.294.187.378C223.472,485.377,224.736,484.294,225,483.935Z" transform="translate(-218.065 -460.563)"/>
  <path id="Path_1407" data-name="Path 1407" class="cls-2" d="M239.68,500.935c.032.023.5.363.424.61-.017.059-.057.087-.047.142.023.115.216.1.375.281a.267.267,0,0,1,.094.189.282.282,0,0,1-.234.237c-.193.032-.328-.2-.421-.139-.038.023-.056.11-.094.284-.019.092-.019.123-.047.142-.06.043-.171-.03-.281-.095-.283-.161-.547-.312-.7-.232-.119.062-.125.237-.234.237a1.037,1.037,0,0,1-.14-.047.725.725,0,0,0-.141-.047c-.108.013-.116.212-.232.236a.186.186,0,0,1-.141-.047c-.148-.1-.079-.266-.187-.378-.135-.134-.424-.079-.609-.044s-.289.095-.328.048.027-.17.094-.284a1.818,1.818,0,0,1,.278-.379c.639-.618.959-.926,1.255-1A1.694,1.694,0,0,1,239.68,500.935Z" transform="translate(-231.387 -476.958)"/>
  <path id="Path_1408" data-name="Path 1408" class="cls-2" d="M166.231,462.257c0,.315-1.071.407-2.424.768a.91.91,0,0,1-.468,0c-.055-.015-.333-.091-.375-.281a.36.36,0,0,1,.094-.284c.334-.4,1.134.237,1.914-.152.328-.164.436-.4.745-.382C165.947,461.943,166.228,462.1,166.231,462.257Z" transform="translate(-161.077 -440.1)"/>
  <path id="Path_1409" data-name="Path 1409" class="cls-2" d="M205.192,586.739a1.385,1.385,0,0,0-.753-1.033,2.284,2.284,0,0,0-1.171-.229c-.375,0-.347.058-.794.051a2.945,2.945,0,0,0-.8.052c-.249.058-.328.122-.372.189a.491.491,0,0,0,0,.473.532.532,0,0,0,.375.28c.337.056.658-.289.7-.24.024.03-.106.132-.094.284a.326.326,0,0,0,.094.189.811.811,0,0,0,.843.279c.1-.047.12-.1.187-.095.16.023.245.393.283.564.072.315.037.452.143.52a.275.275,0,0,0,.328-.047c.15-.19-.215-.593-.051-.8a.293.293,0,0,1,.187-.094c.156-.021.215.1.422.139a.456.456,0,0,0,.328-.047A.525.525,0,0,0,205.192,586.739Z" transform="translate(-197.572 -557.806)"/>
  <path id="Path_1410" data-name="Path 1410" class="cls-2" d="M214.161,641.409c.007-.195.3-.26.278-.378s-.333-.178-.562-.185c-.433-.015-.542.156-.8.051a1.151,1.151,0,0,1-.375-.281c-.118-.132-.155-.236-.234-.236s-.082.094-.232.236c-.081.078-.228.218-.375.189-.073-.013-.094-.06-.141-.047-.075.022-.127.169-.094.284.017.056.047.069.234.236a1.245,1.245,0,0,1,.234.234.417.417,0,0,1,.094.189c.027.2-.187.337-.138.426.011.02.033.032.141.047a1.072,1.072,0,0,0,.468,0,1.318,1.318,0,0,0,.372-.189.426.426,0,0,1,.187-.1.418.418,0,0,1,.281.1c.243.148.23.248.375.28a.65.65,0,0,0,.328-.048c.1-.031.157-.047.187-.094.052-.083.006-.2-.047-.332C214.245,641.532,214.157,641.517,214.161,641.409Z" transform="translate(-207.461 -610.112)"/>
  <path id="Path_1411" data-name="Path 1411" class="cls-2" d="M214.4,700.169l.234.236h0a1.079,1.079,0,0,1-.749-.09c-.214-.171-.068-.426-.283-.564a.731.731,0,0,0-.669,0c-.055.03-.1.065-.125.047-.054-.036,0-.288.138-.426a.711.711,0,0,1,.794-.051C214.048,699.495,214.051,699.815,214.4,700.169Z" transform="translate(-208.576 -666.178)"/>
  <path id="Path_1412" data-name="Path 1412" class="cls-2" d="M179.64,762.6c.338.1.482-.032.89.136.187.077.394.2.375.281s-.177.047-.513.145c-.223.064-.354.1-.372.189-.026.119.19.183.187.376a.7.7,0,0,1-.094.284s-.234.342-.419.331-.147-.387-.424-.611c-.2-.165-.634-.17-1.5-.18-.112,0-.325,0-.421-.139-.062-.088-.025-.16-.047-.331a.929.929,0,0,0-.283-.565c-.223-.17-.432-.022-.562-.186a.5.5,0,0,1,0-.473.639.639,0,0,1,.419-.331.913.913,0,0,1,.609.044c.27.1.272.216.515.327.312.142.415,0,.749.09C179.231,762.121,179.162,762.456,179.64,762.6Z" transform="translate(-173.888 -725.496)"/>
  <path id="Path_1413" data-name="Path 1413" class="cls-2" d="M170.663,855.608c.094.075.215-.06.468,0,.128.029.351.12.375.281s-.127.307-.278.379c-.3.144-.549-.112-.793.052-.121.081-.094.166-.234.237a.611.611,0,0,1-.468,0,2.205,2.205,0,0,1-.656-.374c-.464-.308-.7-.462-.937-.466s-.367.094-.468,0a.4.4,0,0,1,0-.473c.126-.174.307-.07.7-.24.293-.127.305-.234.559-.286a2.263,2.263,0,0,1,.468,0c.321.014.35.032.609.044.473.023.536-.029.609.044C170.8,855,170.492,855.477,170.663,855.608Z" transform="translate(-165.495 -814.302)"/>
  <path id="Path_1414" data-name="Path 1414" class="cls-2" d="M169.3,919.87a.871.871,0,0,1-.138.426h0a2.8,2.8,0,0,1-.51.615c-.315.263-.43.126-.745.381-.253.2-.184.3-.51.615a2.109,2.109,0,0,1-.6.426.792.792,0,0,1-.653.1c-.044-.021-.216-.1-.234-.237-.043-.317.8-.57.742-.851-.012-.065-.086-.121-.234-.236-.213-.163-.341-.169-.375-.281a.345.345,0,0,1,.094-.284c.154-.189.381-.178.7-.24a3.249,3.249,0,0,0,1.072-.43c.362-.237.362-.387.6-.426C168.861,919.39,169.272,919.63,169.3,919.87Z" transform="translate(-163.887 -875.971)"/>
</svg>
