<svg id="Group_3706" data-name="Group 3706" xmlns="http://www.w3.org/2000/svg" viewBox="0 0 13.665 19.101">
  <defs>
    <style>
      .cls-1 {
        fill: #fff;
      }
    </style>
  </defs>
  <path id="Path_1400" data-name="Path 1400" class="cls-1" d="M294.115,1.372s.525-2.448,2.493.421c0,0,3.166,3.482,2.232,7.858a12.123,12.123,0,0,1-.941,2.715,12.292,12.292,0,0,1-2.874,3.786L292.463,18.5s-2.715,1.79-2.139-.474c0,0,.028-.938.482-1.125a.844.844,0,0,0,.3-1.241s-.272-.534.5-1.007a.744.744,0,0,0,.246-1.09,1.014,1.014,0,0,1,.583-1.091s.588-.087.246-1.09c0,0-.071-.636.416-.756,0,0,.706-.1.079-.922,0,0-.373-.567.381-.991,0,0,.487-.12-.056-1.021,0,0-.322-.383.382-.823,0,0,.386-.153-.022-.954,0,0-.358-.785.23-1.04,0,0,.436-.3.112-1.022A5.619,5.619,0,0,1,294.115,1.372Z" transform="translate(-285.347 -0.399)"/>
  <path id="Path_1401" data-name="Path 1401" class="cls-1" d="M7.542,18.218s.531-1.276-.578-.968a14.311,14.311,0,0,0-3.235,2.011S.407,21.021,0,26.348c0,0,.065,5.425,1.659,7.727l1.391,1.9s.624.315.8-.741l.477-1.962a.825.825,0,0,1,.5-.505s.437-.137-.039-.9c0,0-.137-.435.45-.688a.551.551,0,0,0,.216-.127,1.013,1.013,0,0,0,.029-1.13,4.737,4.737,0,0,1-.016-.974,4.96,4.96,0,0,1,.8-2.28s2.266-3.831,1.33-5.751A3.879,3.879,0,0,1,7.542,18.218Z" transform="translate(0 -16.919)"/>
</svg>
